<svg width="152" height="46" viewBox="0 0 152 46" fill="none" xmlns="http://www.w3.org/2000/svg">
<path d="M21.8366 9.20419L22.9535 8.9683C23.2364 8.9683 23.4747 9.02727 23.6385 9.14522C23.8023 9.26316 23.8917 9.38111 23.8917 9.48431C23.8917 9.58752 23.8619 9.74969 23.8172 9.94136C23.7725 10.133 23.3556 12.1086 22.5812 15.8387C21.8068 19.5687 21.2409 22.3552 20.8835 24.1834C22.611 21.854 24.6363 18.9938 26.9446 15.588C29.2529 12.1823 30.6081 9.92661 30.9953 8.80612C31.1144 8.45228 31.2782 8.1869 31.4718 7.99524C31.6654 7.80358 31.8441 7.68563 31.9931 7.65614C32.142 7.62666 32.3803 7.59717 32.693 7.59717C33.0057 7.59717 33.3781 7.67089 33.8099 7.80358C34.2418 7.93627 34.4652 8.15741 34.4652 8.48177C34.4652 9.0715 33.5716 10.7965 31.7995 13.6272C30.0273 16.4579 27.9871 19.4655 25.6937 22.6501C23.4003 25.8347 21.494 28.3558 19.9601 30.2134C19.6921 30.5378 19.3496 30.7147 18.9624 30.7147C18.5752 30.7147 18.1582 30.641 17.7263 30.5083C17.2944 30.3756 17.071 30.1397 17.071 29.7859C17.071 28.6801 18.0539 23.343 20.0197 13.8041C18.3369 15.9566 16.2966 18.9643 13.899 22.8123C11.3971 26.793 9.98234 29.2698 9.65471 30.2134C9.476 30.7884 9.26752 31.1275 9.02924 31.216C8.86543 31.2897 8.68671 31.3192 8.508 31.3192L7.30174 31.4519C7.06346 31.4519 6.85496 31.3929 6.64647 31.2602C6.45287 31.1275 6.34863 30.9948 6.34863 30.8474C6.34863 30.4493 6.91455 29.2404 8.03146 27.2353C9.14838 25.2302 10.4738 23.0482 11.9779 20.6892C13.482 18.3303 15.0457 16.0451 16.6839 13.8188C18.322 11.5926 19.5878 10.0888 20.4814 9.33688C20.6601 9.1747 20.8686 9.10099 21.1068 9.10099L21.8366 9.20419Z" fill="#FF6D6D"/>
<path d="M39.7365 19.2003C40.5109 19.2003 40.8981 19.4657 40.8981 19.9817C40.8981 20.2618 40.8386 20.4682 40.7045 20.6009C40.5705 20.7336 40.2876 21.1611 39.8557 21.913C39.4238 22.6502 38.9472 23.5938 38.426 24.7585C37.9048 25.9085 37.5623 26.8963 37.4134 27.7072C37.3836 27.8104 37.3687 27.9431 37.3687 28.1347C37.3687 28.695 37.5176 28.9604 37.8303 28.9604C38.1431 28.9604 38.5005 28.8129 38.9175 28.5328C39.3344 28.2379 39.7067 27.9431 40.0344 27.604C40.362 27.2796 40.6747 26.9405 40.9875 26.6014C41.3002 26.2623 41.4789 26.0559 41.5385 26.0117C41.5981 25.9675 41.6874 25.938 41.8066 25.938C42.0002 25.938 42.1193 26.0854 42.164 26.3803C42.2087 26.6751 42.2235 26.97 42.2235 27.2944C42.2235 27.6187 42.1938 27.8251 42.1342 27.9431C41.8363 28.518 41.196 29.211 40.1833 30.0219C39.1855 30.8328 38.2622 31.2308 37.4431 31.2308C36.6241 31.2308 36.0135 30.9802 35.6412 30.4937C35.2689 30.0071 35.0604 29.4469 35.0604 28.8572C35.0604 28.2527 35.1646 27.7367 35.3731 27.2796C34.5243 28.3706 33.5563 29.2847 32.4691 30.0514C31.3671 30.8033 30.4885 31.1866 29.7885 31.1866C29.0886 31.1866 28.5376 30.9802 28.0908 30.5674C27.5249 30.0514 27.2568 29.3437 27.2568 28.4296C27.2568 27.5155 27.4653 26.6014 27.8823 25.6726C28.2993 24.7585 28.8354 23.9034 29.5056 23.1515C30.1757 22.3848 30.9203 21.6919 31.7245 21.0727C33.4073 19.7605 34.971 19.1118 36.4007 19.1118C36.9517 19.1118 37.3985 19.2003 37.741 19.3772C38.0835 19.5541 38.3069 19.79 38.3962 20.0554C38.6345 19.6868 38.843 19.4657 39.0217 19.3625C39.1557 19.2445 39.4089 19.2003 39.7365 19.2003ZM37.7112 20.881C35.9688 20.881 34.1668 21.8393 32.3053 23.756C31.65 24.4489 31.0395 25.2598 30.4736 26.2181C29.9077 27.1764 29.6396 27.8251 29.6396 28.179C29.6396 28.5328 29.7439 28.7097 29.9524 28.7097C30.2353 28.7097 31.0246 28.1495 32.3351 27.0437C33.6456 25.938 34.5094 25.1123 34.9264 24.5816C35.4029 23.9919 36.3262 22.7534 37.7112 20.881Z" fill="#FF6D6D"/>
<path d="M51.3235 11.2095L51.9489 11.3569C52.0383 11.3569 52.1277 11.4011 52.1872 11.4896C52.2617 11.5781 52.2915 11.6665 52.2915 11.7402C52.2915 11.8139 52.1872 12.0351 51.9639 12.3889C51.7405 12.7428 51.5022 13.1408 51.2043 13.5831C50.9065 14.0254 50.7576 14.2761 50.7427 14.3203C51.532 14.2613 52.0979 14.2319 52.4255 14.2319C52.7531 14.2319 52.9765 14.2613 53.1105 14.3056C53.2297 14.3498 53.3786 14.4825 53.5275 14.6889C53.6913 14.8953 53.8254 15.0575 53.9594 15.1607C54.0934 15.2639 54.153 15.4261 54.153 15.6325C54.153 15.8389 54.019 16.0305 53.7658 16.1632C53.5126 16.3107 53.2297 16.3991 52.9318 16.4286C50.564 16.6645 49.2684 16.7824 49.0301 16.7972C48.211 18.0504 47.0494 19.9965 45.5751 22.6355C44.1007 25.2746 43.3114 26.9406 43.2221 27.604C43.1774 27.9137 43.1625 28.1495 43.1625 28.3412C43.1625 28.7393 43.371 28.9309 43.788 28.9309C44.205 28.9309 44.6666 28.7688 45.173 28.4592C45.6793 28.1348 46.1559 27.7957 46.5728 27.4271C47.7196 26.4246 48.3301 25.9086 48.4046 25.9086C48.6727 25.9086 48.8067 26.3656 48.8067 27.2649C48.8067 27.7515 48.5833 28.1938 48.1217 28.5918C47.0941 29.4617 46.2303 30.1252 45.5304 30.5675C44.8305 31.0098 44.1305 31.2309 43.4157 31.2309C43.2668 31.2309 43.1179 31.2162 42.9838 31.1867C42.1648 31.0392 41.5691 30.7444 41.1967 30.3021C40.8096 29.8598 40.6309 29.27 40.6309 28.5329C40.6309 27.7957 40.8542 26.8816 41.301 25.8201C41.7478 24.7586 42.2988 23.6233 42.9689 22.4291C44.071 20.4683 45.173 18.6401 46.2601 16.9299L45.6793 17.0036C44.5028 17.1363 43.8178 17.1953 43.6242 17.1953H43.4902C43.1923 17.1953 42.9094 17.1363 42.6413 17.0183C42.3732 16.9004 42.2243 16.753 42.2243 16.5908C42.2243 16.4139 42.2988 16.2517 42.4477 16.0895C42.5966 15.9273 42.686 15.7946 42.7158 15.7062C42.7902 15.485 43.0583 15.2344 43.5199 14.969C43.9816 14.7036 44.3241 14.5562 44.5624 14.5415C44.8007 14.5267 45.0241 14.512 45.2474 14.4972C45.4708 14.4825 45.7091 14.4825 45.9772 14.4677C46.2452 14.453 46.4537 14.453 46.6026 14.4383L47.9727 14.3793C48.8216 13.1114 49.4173 12.2857 49.73 11.9319C50.0576 11.5633 50.2363 11.3716 50.281 11.3422C50.3257 11.3127 50.4299 11.2832 50.5937 11.2832L51.3235 11.2095Z" fill="#FF6D6D"/>
<path d="M60.4821 25.9377C60.6757 25.9377 60.7948 26.0851 60.8395 26.38C60.8842 26.6748 60.8991 26.9697 60.8991 27.2941C60.8991 27.6184 60.8693 27.8248 60.8097 27.9428C60.5119 28.503 59.8715 29.1959 58.8738 30.0068C57.876 30.8177 56.9229 31.2305 56.0293 31.2305C55.4783 31.2305 54.972 31.0683 54.4954 30.744C54.0338 30.4196 53.7955 29.8447 53.7955 29.0338C53.7955 28.2229 54.0189 27.412 54.4508 26.6306C51.9191 29.7709 49.9533 31.3337 48.5087 31.3337C47.9428 31.3337 47.4812 31.1273 47.1238 30.7293C46.7664 30.3312 46.6025 29.9184 46.6025 29.4761C46.6025 29.0485 46.6621 28.6062 46.7812 28.1492C46.9004 27.6921 47.0344 27.2793 47.1685 26.9107C47.3025 26.5422 47.511 26.0999 47.779 25.5691C48.0471 25.0383 48.2556 24.655 48.3747 24.4044C48.4939 24.1537 48.7172 23.7999 49.0151 23.3134C49.3129 22.8268 49.6852 22.1634 50.1618 21.3378C50.6383 20.5121 51.0255 19.8929 51.3383 19.4948C51.651 19.0968 51.9488 18.8904 52.2467 18.8904C52.5445 18.8904 52.7977 19.0083 53.0211 19.2442C53.2445 19.4801 53.3636 19.6865 53.3636 19.8339C53.3636 19.9814 53.0211 20.6596 52.3361 21.8685C50.3256 25.4806 49.3129 27.5742 49.3129 28.1787C49.3129 28.3261 49.3725 28.3998 49.4767 28.3998C49.9682 28.3998 51.1894 27.353 53.1253 25.2595C55.0613 23.1659 56.1931 21.8243 56.5059 21.2346C56.8186 20.6448 57.1016 20.1435 57.3994 19.7455C57.6824 19.3474 57.9058 19.0968 58.0547 19.0083C58.4866 18.7282 59.0525 18.5808 59.7524 18.5513C59.8715 18.5513 59.946 18.5513 60.0056 18.566C60.0651 18.5808 60.1396 18.6692 60.214 18.8166C60.2885 18.9641 60.3332 19.0968 60.3332 19.2C60.2438 19.4801 59.8417 20.232 59.112 21.4557C58.3972 22.6794 57.9951 23.3723 57.9207 23.5198C56.7144 25.9819 56.1187 27.5889 56.1187 28.3261C56.1187 28.7536 56.2825 28.9601 56.6101 28.9601C57.2058 28.8863 57.9206 28.4145 58.7546 27.5594C59.0673 27.2498 59.3652 26.9255 59.663 26.6011C59.9609 26.2768 60.1545 26.0851 60.214 26.0409C60.2885 25.9672 60.3779 25.9377 60.4821 25.9377Z" fill="#FF6D6D"/>
<path d="M64.9046 22.4439C67.3023 19.7458 69.3574 18.3894 71.0402 18.3894C71.4572 18.3894 71.7997 18.5074 72.0678 18.758C72.3359 19.0087 72.4699 19.3183 72.4699 19.7163C72.4699 20.1144 72.1869 20.7631 71.621 21.6919C71.0551 22.606 70.5339 23.3874 70.0573 24.0214C69.8042 24.3457 69.5212 24.5079 69.1936 24.5079C68.8809 24.5079 68.6277 24.39 68.449 24.1541C68.2703 23.9182 68.1809 23.6528 68.1809 23.3432C68.1809 22.6503 68.5532 21.8541 69.3127 20.9843L69.2829 20.9548C68.9404 20.9843 68.1214 21.6477 66.7811 22.9156C65.4556 24.1983 64.3238 25.3483 63.3856 26.3508C62.4623 27.3681 61.4496 28.5918 60.3476 30.0514C60.0349 30.479 59.7668 30.7001 59.5434 30.7001C59.32 30.7001 59.0371 30.6264 58.6797 30.4937C58.3223 30.361 58.0989 30.2578 58.0244 30.1988C57.95 30.1399 57.9053 30.0367 57.9053 29.8892C57.9053 29.7565 57.95 29.5796 58.0244 29.4027C58.0989 29.211 58.2627 28.9457 58.4712 28.6066C58.6797 28.2675 59.0222 27.7072 59.469 26.9406C59.9157 26.1739 60.6008 25.0092 61.539 23.4611C62.4772 21.9131 63.0282 20.9695 63.2218 20.6452C63.609 19.9817 63.9217 19.4952 64.1749 19.2003C64.6366 18.6253 65.411 18.3452 66.4981 18.3452C66.7364 18.3452 66.8704 18.4927 66.8704 18.8023C66.8704 19.274 66.4236 20.1734 65.545 21.4708L64.9046 22.4439Z" fill="#FF6D6D"/>
<path d="M81.3313 19.3775C81.3313 20.0409 81.0632 20.6306 80.5122 21.1319C79.9612 21.6332 79.3506 21.8838 78.6507 21.8838C78.4273 21.8838 78.2784 21.8249 78.2039 21.7217C78.1295 21.6185 78.0997 21.471 78.0997 21.3088C78.0997 21.1467 78.1146 20.9697 78.1592 20.8076C77.7869 20.9255 77.3848 21.1172 76.9381 21.3678C76.4913 21.6185 75.9403 21.987 75.285 22.4883C74.6298 22.9896 74.3022 23.3434 74.3022 23.5941C74.3022 23.6678 74.4213 23.712 74.6596 23.712C74.8978 23.712 75.2702 23.6235 75.7616 23.4614C76.253 23.2992 76.6104 23.2107 76.804 23.2107C76.9976 23.2107 77.1317 23.2255 77.1912 23.2402C77.3253 23.3139 77.4593 23.4614 77.6231 23.6973C77.772 23.9332 77.8465 24.1248 77.8465 24.2575C77.8465 24.3902 77.7125 24.5671 77.4444 24.7883C77.1764 25.0094 76.8785 25.1716 76.5509 25.2895C76.2084 25.4075 75.985 25.4959 75.8807 25.5549C73.7363 26.7491 72.664 27.56 72.664 28.0023C72.664 28.7837 73.3342 29.1818 74.6894 29.1818C75.5531 29.1818 76.4317 28.9164 77.2955 28.3709C78.0401 27.9138 78.7103 27.4421 79.306 26.9555C79.9016 26.4837 80.2739 26.1889 80.4378 26.0709C80.6016 25.953 80.7207 25.9088 80.7952 25.9088C81.0632 25.9088 81.1973 26.2036 81.1973 26.7934C81.1973 27.3831 81.1675 27.7664 81.093 27.9433C81.0186 28.135 80.825 28.3561 80.4824 28.6363C78.3082 30.3907 76.2382 31.2753 74.3022 31.2753C73.2597 31.2753 72.4406 31.1279 71.8151 30.8478C70.6684 30.3318 70.1025 29.5504 70.1025 28.4888C70.1025 27.103 71.0705 26.0414 73.0214 25.3338C72.6342 25.1568 72.3811 24.9504 72.2768 24.6703C72.1577 24.4049 72.113 23.9774 72.113 23.3876C72.113 22.7979 72.3959 22.1787 72.947 21.5153C73.498 20.8518 74.183 20.3063 74.9872 19.8935C76.7743 18.9352 78.3826 18.4634 79.7825 18.4634C80.125 18.4634 80.4526 18.5371 80.8101 18.6993C81.1675 18.8614 81.3313 19.0826 81.3313 19.3775Z" fill="#FF6D6D"/>
<path d="M116.09 9.11577H116.283C116.343 9.11577 116.388 9.11577 116.402 9.13052C116.417 9.14526 116.432 9.14526 116.462 9.16001C116.492 9.16001 116.507 9.17475 116.536 9.20423C116.581 9.24846 116.656 9.29269 116.745 9.33692C116.864 9.42538 116.924 9.52859 116.924 9.64653C116.924 9.76448 116.805 10.0151 116.566 10.3984C116.328 10.7818 115.717 11.7106 114.72 13.2144C112.441 16.6644 110.401 19.8784 108.599 22.8271C105.486 27.9577 103.908 30.5378 103.878 30.5673C103.848 30.5968 103.833 30.6263 103.819 30.6558C103.804 30.7147 103.774 30.7442 103.699 30.7442L103.491 30.7L103.074 30.8032L102.836 30.759L102.582 30.8032H102.493L101.644 30.9211C101.138 30.9211 100.885 30.7442 100.885 30.4051C100.885 30.2577 100.929 30.0808 101.019 29.8744C101.331 29.1372 102.925 26.4687 105.784 21.8393C103.908 21.8835 102.046 21.913 100.215 21.913L96.9383 21.8982C96.4022 22.7533 95.6576 23.9623 94.7193 25.5398C92.694 28.975 91.6218 30.7 91.4877 30.7295C91.3537 30.759 91.2495 30.7884 91.1601 30.7884C91.0707 30.7884 90.9963 30.7442 90.9367 30.641C90.8623 30.5526 90.8176 30.4936 90.7878 30.4936C90.758 30.4936 90.7133 30.5083 90.624 30.5526C90.5495 30.5968 90.4304 30.6115 90.2666 30.6115L89.9092 30.5968L89.7751 30.5083C89.7602 30.5083 89.7453 30.5231 89.7305 30.5526C89.7156 30.582 89.6709 30.5968 89.6113 30.5968C89.1794 30.5968 88.9561 30.4199 88.9561 30.0513C88.9561 29.8154 89.0454 29.491 89.2092 29.093C89.3879 28.6949 89.6113 28.2673 89.8943 27.8103C90.1772 27.3533 90.892 26.2475 92.0685 24.5225C93.2301 22.7976 93.8109 21.9277 93.8109 21.913C93.6173 21.8982 93.3939 21.8982 93.1408 21.8835C92.6195 21.8835 92.2621 21.8687 92.0387 21.8245C91.4579 21.7213 91.0559 21.2495 90.8474 20.4092C90.7282 19.9963 90.6836 19.731 90.6984 19.5983C90.6984 19.3329 90.8176 19.1855 91.0559 19.1855L91.4579 19.2887C91.6664 19.3034 92.143 19.3181 92.9174 19.3624C93.6918 19.4066 94.2428 19.4214 94.5853 19.4214L95.4491 19.3919C96.7745 17.3425 98.3531 15.0131 100.2 12.4183C98.8594 13.5093 97.3702 14.0548 95.732 14.0548C94.9576 14.0548 94.2875 13.8779 93.7365 13.5093C93.1705 13.1407 92.9025 12.6689 92.9025 12.1087C92.9025 11.5484 93.111 11.1061 93.5429 10.767C93.9747 10.4427 94.3768 10.2805 94.764 10.2805C95.1512 10.2805 95.3448 10.3395 95.3448 10.4574C95.3448 10.5016 95.2852 10.5459 95.181 10.5901C95.0768 10.6491 95.0172 10.6933 95.0172 10.7375C95.0172 10.8997 95.1959 11.0471 95.5533 11.1651C95.9107 11.283 96.3128 11.3568 96.7596 11.3568C97.2063 11.3568 97.7425 11.2241 98.3977 10.9734C99.053 10.7228 99.7231 10.3837 100.423 9.98563C101.406 9.42538 102.18 8.9536 102.746 8.58501C103.074 8.42284 103.372 8.34912 103.67 8.34912C103.967 8.34912 104.161 8.37861 104.295 8.45232C104.429 8.5113 104.518 8.58502 104.578 8.64399C104.638 8.70296 104.712 8.79142 104.772 8.89463C104.846 8.99783 104.906 9.08629 104.98 9.13052C105.04 9.18949 105.084 9.24846 105.084 9.32218C105.084 9.3959 105.04 9.4991 104.965 9.66128C104.891 9.80871 104.504 10.4279 103.804 11.5042C103.104 12.5805 102.195 13.9516 101.093 15.6176C99.9912 17.2836 99.187 18.5073 98.6807 19.3034C101.406 19.3034 104.34 19.2592 107.497 19.156C111.339 13.1554 113.364 10.0151 113.573 9.72025C113.781 9.42538 113.975 9.23372 114.154 9.14526C114.332 9.0568 114.541 9.01257 114.794 9.01257L116.09 9.11577Z" fill="#FF6D6D"/>
<path d="M121.064 19.1709C121.377 19.1709 121.689 19.3036 122.002 19.5837C122.33 19.8638 122.479 20.2766 122.479 20.8369C122.479 21.3971 122.285 22.1195 121.883 23.0189C121.481 23.9035 120.945 24.8176 120.245 25.7464C119.56 26.6605 118.785 27.5303 117.966 28.3412C117.132 29.1521 116.239 29.8155 115.286 30.3316C114.318 30.8476 113.454 31.113 112.665 31.113C111.875 31.113 111.25 30.8623 110.773 30.3758C110.297 29.8893 110.059 29.2111 110.059 28.3412C110.059 27.4714 110.282 26.4983 110.714 25.4515C111.146 24.39 111.697 23.4612 112.382 22.6503C113.067 21.8394 113.797 21.117 114.601 20.4683C116.254 19.1414 117.713 18.4927 118.964 18.4927C119.53 18.4927 119.947 18.6254 120.23 18.9055C120.334 18.994 120.379 19.0824 120.379 19.1414V19.2298C120.543 19.1709 120.766 19.1709 121.064 19.1709ZM119.53 21.176H119.426C119.068 21.176 118.89 20.9253 118.89 20.4093C118.145 20.6452 117.371 21.0728 116.552 21.6772C115.733 22.2817 115.003 23.0041 114.362 23.8298C113.052 25.481 112.397 26.8816 112.382 28.0169C112.382 28.5771 112.59 28.8572 113.007 28.8572C113.424 28.8572 114.05 28.5771 114.869 28.0463C115.688 27.5156 116.507 26.7342 117.326 25.7169C118.13 24.7144 118.741 23.8298 119.143 23.0926C119.545 22.3554 119.753 21.8542 119.753 21.574C119.739 21.3086 119.664 21.176 119.53 21.176Z" fill="#FF6D6D"/>
<path d="M122.151 30.7736L121.406 30.7441H121.138C121.034 30.7146 120.93 30.6556 120.811 30.5672C120.691 30.4787 120.602 30.405 120.542 30.3755C120.483 30.346 120.453 30.2576 120.453 30.1544C120.453 30.0512 120.498 29.8595 120.572 29.6089C122.553 25.2891 124.474 21.8244 126.336 19.2443C126.544 18.9642 126.872 18.743 127.318 18.5956C127.765 18.4482 128.212 18.3745 128.644 18.3745C128.897 18.3745 129.031 18.5661 129.031 18.9642C129.031 19.0821 128.986 19.2296 128.912 19.4065C128.837 19.5982 128.629 19.893 128.301 20.3206C127.974 20.7481 127.587 21.2347 127.14 21.7654C126.693 22.2962 126.44 22.6205 126.38 22.709C127.78 21.2789 129.031 20.2174 130.163 19.5097C131.295 18.8168 132.099 18.4629 132.605 18.4629C133.112 18.4629 133.499 18.6103 133.767 18.8905C134.035 19.1706 134.169 19.4802 134.169 19.8046C134.169 20.1289 134.139 20.409 134.094 20.6154C134.05 20.8366 133.96 21.0577 133.841 21.2936C133.722 21.5295 133.618 21.7359 133.529 21.8981C133.439 22.0603 133.29 22.2814 133.097 22.5468C132.888 22.8122 132.754 23.0039 132.68 23.1071C132.605 23.2103 132.441 23.4019 132.203 23.682C131.965 23.9622 131.831 24.1243 131.816 24.1538C132.099 23.8737 132.501 23.4609 133.007 22.9007C133.514 22.3404 133.945 21.8834 134.303 21.5148C134.66 21.1462 135.092 20.7186 135.628 20.2469C136.164 19.7751 136.656 19.3917 137.103 19.1116C138.205 18.4334 139.322 18.0796 140.453 18.0796C140.841 18.0796 141.168 18.1975 141.436 18.4482C141.704 18.6988 141.838 18.9789 141.838 19.318C141.838 19.6571 141.421 20.468 140.602 21.7359C139.783 23.0039 138.949 24.2865 138.13 25.5692C137.311 26.8519 136.894 27.6627 136.894 28.0018C136.894 28.4589 136.984 28.739 137.147 28.8275C137.326 28.9159 137.535 28.9454 137.773 28.9307C138.011 28.9159 138.368 28.7538 138.8 28.4589C139.247 28.164 139.634 27.8692 139.977 27.5448C140.543 27.0435 141.049 26.557 141.541 26.0852C141.645 25.9968 141.749 25.9525 141.883 25.9525C142.077 25.9525 142.196 26.1 142.24 26.3948C142.285 26.6897 142.3 26.9846 142.3 27.3089C142.3 27.6333 142.27 27.8397 142.211 27.9576C141.913 28.5179 141.258 29.2108 140.26 30.0364C139.247 30.8473 138.279 31.2601 137.356 31.2601C137.237 31.2601 137.162 31.2601 137.118 31.2454C136.075 31.1422 135.345 30.862 134.943 30.3903C134.541 29.9185 134.348 29.3582 134.348 28.7243C134.348 28.0903 134.571 27.2942 135.018 26.3801C135.465 25.466 135.941 24.6256 136.477 23.8885C137.013 23.1513 137.49 22.4731 137.937 21.8686C138.383 21.2641 138.607 20.9398 138.607 20.8956C138.607 20.8513 138.562 20.8218 138.488 20.8218C138.175 20.8218 137.475 21.3231 136.373 22.3404C134.511 24.0654 132.903 25.7314 131.548 27.3237C131.19 27.7512 130.342 28.8127 129.016 30.5377C128.867 30.7441 128.614 30.8473 128.286 30.8473C127.959 30.8473 127.616 30.7883 127.259 30.6556C126.901 30.5229 126.723 30.3608 126.723 30.1691C126.723 30.0659 127.527 28.6505 129.15 25.923C130.773 23.1955 131.578 21.7064 131.578 21.4706C131.578 21.2199 131.429 21.102 131.131 21.102C130.833 21.102 130.208 21.5443 129.269 22.4289C126.693 24.8615 124.697 27.2942 123.283 29.6973C123.193 29.8448 123.015 30.0659 122.747 30.3608C122.478 30.6556 122.24 30.7736 122.151 30.7736Z" fill="#FF6D6D"/>
<path d="M151.682 19.3775C151.682 20.0409 151.414 20.6306 150.863 21.1319C150.312 21.6332 149.701 21.8838 149.001 21.8838C148.778 21.8838 148.629 21.8249 148.555 21.7217C148.48 21.6185 148.45 21.471 148.45 21.3088C148.45 21.1467 148.465 20.9697 148.51 20.8076C148.138 20.9255 147.735 21.1172 147.289 21.3678C146.842 21.6185 146.291 21.987 145.636 22.4883C144.98 22.9896 144.653 23.3434 144.653 23.5941C144.653 23.6678 144.772 23.712 145.01 23.712C145.248 23.712 145.621 23.6235 146.112 23.4614C146.604 23.2992 146.961 23.2107 147.155 23.2107C147.348 23.2107 147.482 23.2255 147.542 23.2402C147.676 23.3139 147.81 23.4614 147.974 23.6973C148.123 23.9332 148.197 24.1248 148.197 24.2575C148.197 24.3902 148.063 24.5671 147.795 24.7883C147.527 25.0094 147.229 25.1716 146.901 25.2895C146.559 25.4075 146.336 25.4959 146.231 25.5549C144.087 26.7491 143.015 27.56 143.015 28.0023C143.015 28.7837 143.685 29.1818 145.04 29.1818C145.904 29.1818 146.782 28.9164 147.646 28.3709C148.391 27.9138 149.061 27.4421 149.657 26.9555C150.252 26.4837 150.625 26.1889 150.788 26.0709C150.952 25.953 151.071 25.9088 151.146 25.9088C151.414 25.9088 151.548 26.2036 151.548 26.7934C151.548 27.3831 151.518 27.7664 151.444 27.9433C151.369 28.135 151.176 28.3561 150.833 28.6363C148.659 30.3907 146.589 31.2753 144.653 31.2753C143.61 31.2753 142.791 31.1279 142.166 30.8478C141.019 30.3318 140.453 29.5504 140.453 28.4888C140.453 27.103 141.421 26.0414 143.372 25.3338C142.985 25.1568 142.732 24.9504 142.627 24.6703C142.508 24.4049 142.464 23.9774 142.464 23.3876C142.464 22.7979 142.747 22.1787 143.298 21.5153C143.849 20.8518 144.534 20.3063 145.338 19.8935C147.125 18.9352 148.733 18.4634 150.133 18.4634C150.476 18.4634 150.803 18.5371 151.161 18.6993C151.518 18.8614 151.682 19.0826 151.682 19.3775Z" fill="#FF6D6D"/>
<path d="M0.719727 34.8574C4.63639 36.4791 8.6275 37.7323 12.6931 38.6906C16.7289 39.6932 20.8391 40.4009 24.9494 40.8431C27.0045 41.1233 29.0746 41.1528 31.1148 41.3444C33.1848 41.3592 35.2399 41.5213 37.2951 41.4034L40.3778 41.3297C41.4053 41.3149 42.4329 41.1822 43.4604 41.1233C44.488 41.0348 45.5156 40.9906 46.5282 40.8579L49.5812 40.4303C53.6765 39.988 57.6528 39.0445 61.6141 37.9092C65.6201 36.8182 69.4027 35.3734 73.4087 33.8696C77.5041 32.3805 81.942 31.4074 86.4395 31.8792C88.6584 32.1593 90.8922 32.867 92.7091 34.1644C94.5408 35.4471 95.8514 37.2753 96.6853 39.1919C95.4344 37.4817 93.8707 36.0811 92.0687 35.2112C90.2668 34.3413 88.2861 33.9875 86.3203 34.0465C82.3441 34.1055 78.4274 35.4176 74.749 37.0689C71.0111 38.897 66.9604 40.5483 62.8799 41.9194C58.7697 43.2316 54.5254 44.2783 50.2215 44.8091C41.6585 45.9296 32.887 45.9443 24.4282 44.2489C20.1839 43.4822 16.0438 42.288 12.0378 40.7694C8.06159 39.1919 4.17473 37.349 0.719727 34.8574Z" fill="#FF6D6D"/>
<path d="M143.134 10.31C139.813 8.9094 136.432 7.81839 133.007 6.96328C129.597 6.06394 126.142 5.42998 122.672 4.98768C120.944 4.7223 119.187 4.66333 117.459 4.45692C115.717 4.41269 113.99 4.23577 112.247 4.30948C111.383 4.32423 110.505 4.32423 109.641 4.30948C108.777 4.30948 107.899 4.39794 107.035 4.42743C106.171 4.4864 105.292 4.50115 104.429 4.58961L101.837 4.89922C98.3676 5.17934 95.0019 5.88702 91.6363 6.75688C88.226 7.56776 84.9944 8.71774 81.5542 9.86772C78.0248 11.0324 74.1975 11.7401 70.3553 11.2094C68.464 10.8997 66.5578 10.2363 65.0536 9.05683C63.5197 7.89211 62.4773 6.29983 61.8369 4.63384C62.8943 6.09343 64.2048 7.28764 65.7089 8.0248C67.213 8.76197 68.8661 9.07158 70.5191 9.05683C73.855 9.05683 77.161 7.99531 80.2884 6.66842C83.4753 5.1646 86.975 3.8377 90.4598 2.74669C93.9744 1.69992 97.6379 0.903779 101.301 0.520453C108.613 -0.246199 116.089 -0.06928 123.253 1.61146C126.842 2.36337 130.341 3.51335 133.692 4.9287C137.058 6.37355 140.304 8.05429 143.134 10.31Z" fill="#FF6D6D"/>
</svg>
