<svg width="171" height="45" viewBox="0 0 171 45" fill="none" xmlns="http://www.w3.org/2000/svg">
<path d="M36.5725 44.9305H8.59368C3.99582 44.9305 0.269531 41.2414 0.269531 36.6895V8.99055C0.269531 4.43867 3.99582 0.749634 8.59368 0.749634H36.5725C41.1703 0.749634 44.8966 4.43867 44.8966 8.99055V36.6895C44.8966 41.2414 41.1703 44.9305 36.5725 44.9305Z" fill="#FF6D6D"/>
<path d="M30.6224 23.2465C31.4182 24.2344 31.8224 25.3849 31.8224 26.6855C31.8224 28.5987 31.1782 30.0994 29.8898 31.1623C28.6014 32.2253 26.7572 32.7755 24.3572 32.7755H13.873V10.4537H24.1045C26.4035 10.4537 28.1719 10.9539 29.4224 11.9419C30.6729 12.9298 31.3045 14.3428 31.3045 16.1686C31.3045 17.5192 30.9382 18.6321 30.2182 19.5325C29.4982 20.4329 28.5508 21.0081 27.3761 21.2832C28.753 21.6084 29.8266 22.2586 30.6224 23.2465ZM19.3172 19.5825H22.8919C24.7867 19.5825 25.734 18.7822 25.734 17.1815C25.734 15.5809 24.7614 14.7805 22.8288 14.7805H19.3172V19.5825ZM26.2393 25.9352C26.2393 25.1348 25.974 24.5096 25.4435 24.0594C24.913 23.6092 24.1551 23.3841 23.1825 23.3841H19.3298V28.3987H23.2203C25.2288 28.3862 26.2393 27.5733 26.2393 25.9352Z" fill="white"/>
<path d="M70.754 32.7755L65.8783 24.347H64.6404V32.7755H59.1836V10.4537H68.493C70.274 10.4537 71.7898 10.7539 73.0151 11.3666C74.253 11.9794 75.1751 12.8172 75.794 13.8802C76.4129 14.9431 76.7161 16.1561 76.7161 17.5317C76.7161 19.1573 76.2614 20.5329 75.3645 21.6709C74.4551 22.8089 73.154 23.5842 71.4235 24.0094L76.7793 32.788H70.754V32.7755ZM64.6404 20.658H68.013C69.0993 20.658 69.8951 20.4204 70.4004 19.9452C70.9056 19.47 71.1709 18.7697 71.1709 17.8443C71.1709 16.9564 70.9056 16.2686 70.3877 15.7559C69.8698 15.2557 69.074 14.9931 68.013 14.9931H64.6404V20.658Z" fill="#FF6D6D"/>
<path d="M101.398 28.711H92.9474L91.5453 32.7877H85.8105L94.0716 10.6285H100.349L108.61 32.7877H102.813L101.398 28.711ZM99.9957 24.5968L97.1915 16.3934L94.3495 24.5968H99.9957Z" fill="#FF6D6D"/>
<path d="M138.711 32.7755H133.254L124.135 19.0698V32.7755H118.678V10.4537H124.135L133.254 24.2845V10.4537H138.711V32.7755Z" fill="#FF6D6D"/>
<path d="M169.306 27.3982C168.359 29.0864 166.995 30.4119 165.226 31.3623C163.445 32.3127 161.361 32.7879 158.961 32.7879H150.447V10.4662H158.961C161.386 10.4662 163.483 10.9289 165.239 11.8543C167.007 12.7796 168.359 14.0802 169.306 15.7684C170.253 17.4566 170.721 19.3824 170.721 21.5833C170.721 23.7592 170.241 25.6975 169.306 27.3982ZM163.432 26.2727C164.607 25.1598 165.201 23.5841 165.201 21.5708C165.201 19.5449 164.607 17.9818 163.432 16.8688C162.258 15.7559 160.603 15.1931 158.468 15.1931H155.891V27.9484H158.468C160.603 27.9484 162.258 27.3982 163.432 26.2727Z" fill="#FF6D6D"/>
</svg>
