<svg width="138" height="45" viewBox="0 0 138 45" fill="none" xmlns="http://www.w3.org/2000/svg">
<path d="M12.6958 0.960938V1.1526L11.8916 1.34426V9.83642L12.6958 10.0281V10.2197H8.88335V10.0281L9.68754 9.83642V2.59745L6.5304 10.3524H6.12828L2.03291 2.59745V9.63001L3.10515 10.0281V10.2197H0.558594V10.0281L1.63084 9.63001V1.34426L0.826643 1.1526V0.960938H2.49457C2.74773 0.960938 2.97112 0.990423 3.14983 1.0494C3.32854 1.10837 3.50727 1.18209 3.6413 1.28529C3.79022 1.38849 3.90936 1.50644 4.0136 1.63913C4.11785 1.77182 4.20721 1.934 4.29656 2.09617L7.21543 7.62492L9.44926 2.09617C9.52372 1.90451 9.5982 1.74233 9.70245 1.60964C9.7918 1.47695 9.91091 1.35901 10.0449 1.2558C10.179 1.1526 10.3428 1.07888 10.5364 1.03465C10.73 0.990423 10.9683 0.960938 11.2661 0.960938H12.6958Z" fill="#FF6D6D"/>
<path d="M17.4623 3.42285C18.0133 3.42285 18.5197 3.49657 18.9516 3.65874C19.3834 3.82092 19.7557 4.05681 20.0685 4.35168C20.3812 4.66129 20.6046 5.02987 20.7684 5.45743C20.9322 5.88498 21.0067 6.38626 21.0067 6.93176C21.0067 7.47726 20.9322 7.97854 20.7684 8.40609C20.6046 8.83365 20.3663 9.20223 20.0685 9.51184C19.7557 9.82145 19.3834 10.0426 18.9516 10.2048C18.5197 10.367 18.0133 10.4407 17.4623 10.4407C16.9113 10.4407 16.405 10.367 15.9731 10.2048C15.5412 10.0426 15.1689 9.80671 14.8562 9.51184C14.5435 9.20223 14.3201 8.83365 14.1563 8.40609C13.9924 7.97854 13.918 7.47726 13.918 6.93176C13.918 6.38626 13.9924 5.88498 14.1563 5.45743C14.3201 5.02987 14.5583 4.66129 14.8562 4.35168C15.1689 4.04207 15.5412 3.82092 15.9731 3.65874C16.405 3.49657 16.8964 3.42285 17.4623 3.42285ZM17.4623 10.19C17.6113 10.19 17.7602 10.1458 17.924 10.0426C18.0729 9.9394 18.2069 9.77722 18.3261 9.52658C18.4452 9.27595 18.5495 8.95159 18.6239 8.53878C18.6984 8.11123 18.743 7.58047 18.743 6.9465C18.743 6.2978 18.6984 5.76704 18.6239 5.35423C18.5495 4.94141 18.4452 4.60232 18.3261 4.36642C18.2069 4.13053 18.0729 3.95361 17.924 3.85041C17.7751 3.74721 17.6261 3.70298 17.4623 3.70298C17.3134 3.70298 17.1645 3.74721 17.0007 3.85041C16.8518 3.95361 16.7177 4.11579 16.5986 4.36642C16.4794 4.61706 16.3752 4.94141 16.3007 5.35423C16.2263 5.78178 16.1816 6.31254 16.1816 6.9465C16.1816 7.59521 16.2263 8.12597 16.3007 8.53878C16.3752 8.95159 16.4794 9.29069 16.5986 9.52658C16.7177 9.76248 16.8518 9.9394 17.0007 10.0426C17.1496 10.1311 17.2985 10.19 17.4623 10.19Z" fill="#FF6D6D"/>
<path d="M27.5133 0.960938C28.3175 0.960938 28.7196 1.35901 28.7196 2.15515V9.85116L29.5238 10.0428V10.2345H28.3175C27.9899 10.2345 27.7367 10.1903 27.5431 10.0871C27.3495 9.98385 27.1857 9.8659 27.0814 9.74796C26.9474 9.60052 26.8432 9.4236 26.7836 9.24668C26.6645 9.48258 26.5155 9.67424 26.3368 9.85116C26.1879 9.99859 25.9794 10.1313 25.7262 10.264C25.4731 10.3967 25.1752 10.4556 24.8327 10.4556C24.4455 10.4556 24.0881 10.3819 23.7604 10.2345C23.4179 10.0871 23.135 9.8659 22.8967 9.57103C22.6584 9.27617 22.45 8.90759 22.3159 8.48003C22.167 8.03773 22.1074 7.53646 22.1074 6.94672C22.1074 6.35699 22.1819 5.85572 22.3159 5.41342C22.4649 4.97112 22.6584 4.61728 22.9265 4.32241C23.1796 4.02755 23.4924 3.8064 23.8498 3.65896C24.2072 3.51153 24.6093 3.43781 25.0561 3.43781C25.2944 3.43781 25.5029 3.4673 25.6965 3.51153C25.8901 3.5705 26.0539 3.62948 26.1879 3.7032C26.3517 3.77691 26.4857 3.86537 26.6049 3.96858V1.3885L25.8007 1.19683V1.00517H27.5133V0.960938ZM26.5751 4.3519C26.4708 4.2487 26.3815 4.16024 26.2624 4.08652C26.1581 4.01281 26.0539 3.95383 25.9347 3.89486C25.8156 3.83588 25.6965 3.82114 25.5624 3.82114C25.3986 3.82114 25.2348 3.86537 25.0859 3.95383C24.9369 4.04229 24.8178 4.18972 24.6987 4.41087C24.5944 4.63202 24.5051 4.95638 24.4455 5.35444C24.3859 5.76726 24.3562 6.28327 24.3562 6.93198C24.3562 7.56594 24.3859 8.06722 24.4455 8.46529C24.5051 8.86336 24.5796 9.17296 24.6838 9.39411C24.7731 9.61526 24.8774 9.77744 25.0114 9.85116C25.1306 9.92487 25.2497 9.9691 25.3688 9.9691C25.5773 9.9691 25.756 9.91013 25.9049 9.80693C26.0538 9.70372 26.173 9.57103 26.2772 9.43834C26.3964 9.27617 26.5006 9.09925 26.59 8.90758V4.3519H26.5751Z" fill="#FF6D6D"/>
<path d="M34.0055 10.4563C32.8588 10.4563 31.9653 10.1467 31.3398 9.52747C30.6995 8.90825 30.3867 8.03839 30.3867 6.94738C30.3867 6.40188 30.4612 5.90061 30.625 5.47305C30.7888 5.0455 31.0122 4.67691 31.2952 4.3673C31.5781 4.05769 31.9206 3.83655 32.3376 3.67437C32.7397 3.51219 33.1864 3.43848 33.6779 3.43848C34.1842 3.43848 34.631 3.51219 35.0182 3.64488C35.4203 3.79232 35.7479 3.98398 36.0309 4.21987C36.3138 4.45577 36.5223 4.73589 36.6712 5.06024C36.8202 5.3846 36.8946 5.72369 36.8946 6.09227C36.8946 6.21022 36.8947 6.32817 36.8798 6.41663C36.8649 6.50509 36.85 6.59355 36.8351 6.66726C36.8053 6.75572 36.7904 6.82944 36.7606 6.88841C36.3734 6.96213 35.9564 7.03585 35.5097 7.08008C35.1373 7.13905 34.7055 7.18328 34.214 7.21276C33.7226 7.24225 33.2163 7.27174 32.6801 7.27174C32.6801 7.81724 32.7248 8.27429 32.7993 8.64287C32.8737 9.01145 32.9929 9.30632 33.1269 9.51272C33.2758 9.73387 33.4396 9.88131 33.6332 9.96977C33.8268 10.0582 34.0502 10.1025 34.2736 10.1025C34.5417 10.1025 34.7948 10.0582 35.0331 9.95502C35.2714 9.85182 35.4799 9.73387 35.6437 9.5717C35.8224 9.40952 35.9564 9.21786 36.0607 9.01145C36.1649 8.80505 36.2096 8.59864 36.2096 8.37749H36.5372C36.5372 8.64287 36.4777 8.8935 36.3585 9.14414C36.2394 9.39478 36.0607 9.61593 35.8373 9.80759C35.6139 9.99925 35.3458 10.1467 35.0331 10.2646C34.7352 10.3973 34.3927 10.4563 34.0055 10.4563ZM32.6652 6.93264C32.9631 6.93264 33.2311 6.93264 33.4694 6.9179C33.7077 6.90316 33.9013 6.88841 34.0651 6.87367C34.2587 6.85893 34.4076 6.82944 34.5417 6.81469C34.5566 6.72623 34.5864 6.62303 34.6012 6.51983C34.6161 6.41663 34.631 6.31342 34.6459 6.19548C34.6608 6.07753 34.6608 5.94484 34.6608 5.81215C34.6608 5.41408 34.631 5.07499 34.5714 4.80961C34.5119 4.54423 34.4374 4.32307 34.3332 4.14616C34.2438 3.98398 34.1396 3.85129 34.0055 3.79232C33.8715 3.73334 33.7673 3.68911 33.6481 3.68911C33.529 3.68911 33.4099 3.73334 33.2907 3.8218C33.1716 3.91026 33.0673 4.07244 32.9631 4.29359C32.8737 4.52948 32.7844 4.85383 32.7248 5.28139C32.6652 5.70895 32.6652 6.25445 32.6652 6.93264Z" fill="#FF6D6D"/>
<path d="M42.524 3.88014C42.256 3.88014 42.0177 3.93911 41.8092 4.04232C41.6008 4.14552 41.422 4.27821 41.2731 4.4109C41.1093 4.57307 40.9752 4.75 40.8412 4.94166V9.85118L41.6454 10.0428V10.2345H37.8926V10.0428L38.6968 9.85118V4.01283L37.8926 3.82117V3.6295H39.0988C39.4116 3.6295 39.6647 3.68848 39.8732 3.79168C40.0668 3.89488 40.2307 4.01283 40.3498 4.13077C40.4838 4.27821 40.5881 4.44038 40.6477 4.6173C40.7817 4.42564 40.9455 4.24872 41.1391 4.08655C41.3029 3.95386 41.5114 3.83591 41.7646 3.71796C42.0177 3.60002 42.3007 3.55579 42.6432 3.55579C43.1198 3.55579 43.4772 3.67373 43.7154 3.88014C43.9537 4.10129 44.0579 4.4109 44.0579 4.80897C44.0579 5.10383 43.9686 5.35447 43.7899 5.53139C43.6112 5.70831 43.358 5.79677 43.0602 5.79677C42.9857 5.79677 42.9261 5.79677 42.8517 5.79677C42.7772 5.79677 42.7326 5.78203 42.6879 5.78203C42.6283 5.76728 42.5687 5.76728 42.524 5.7378V3.88014Z" fill="#FF6D6D"/>
<path d="M49.8219 5.60508C49.8219 5.31021 49.7921 5.04483 49.7325 4.82369C49.6729 4.60254 49.5985 4.42561 49.4943 4.29292C49.4049 4.14549 49.3007 4.04229 49.1666 3.98331C49.0475 3.92434 48.9283 3.88011 48.8092 3.88011C48.6007 3.88011 48.422 3.93909 48.2731 4.04229C48.1242 4.14549 47.9901 4.27818 47.9008 4.41087C47.7817 4.57305 47.6923 4.74997 47.6029 4.94163V9.85116L48.4071 10.0428V10.2345H44.6543V10.0428L45.4584 9.85116V4.0128L44.6543 3.82114V3.62947H45.8606C46.1733 3.62947 46.4265 3.68845 46.6349 3.79165C46.8285 3.89485 46.9924 4.0128 47.1115 4.13075C47.2455 4.27818 47.3498 4.44036 47.4093 4.61728C47.5285 4.39613 47.6774 4.18972 47.8561 4.0128C48.005 3.86537 48.2135 3.73268 48.4518 3.59999C48.6901 3.4673 49.0028 3.40833 49.3602 3.40833C49.7474 3.40833 50.1048 3.4673 50.4176 3.59999C50.7452 3.71794 51.0133 3.89486 51.2366 4.08652C51.46 4.29293 51.6388 4.51407 51.7728 4.77945C51.9068 5.04483 51.9663 5.31021 51.9663 5.59034V9.83641L52.7705 10.0281V10.2197H51.0282C50.224 10.2197 49.8219 9.82167 49.8219 9.02553V5.60508Z" fill="#FF6D6D"/>
<path d="M1.97266 19.5522V19.0067H12.3227V19.5522L10.1485 20.0977V31.2289H17.952V20.0977L15.7777 19.5522V19.0067H26.1279V19.5522L23.9536 20.0977V43.0973L26.1279 43.6428V44.1883H15.7777V43.6281L17.952 43.0826V32.1283H10.1485V43.0826L12.3227 43.6281V44.1736H1.97266V43.6281L4.14691 43.0826V20.083L1.97266 19.5522Z" fill="#FF6D6D"/>
<path d="M38.9954 25.656C40.4995 25.656 41.8398 25.8772 43.0312 26.3047C44.2225 26.7323 45.2203 27.3662 46.0543 28.1919C46.8882 29.0175 47.5286 30.02 47.9605 31.1995C48.3924 32.379 48.6157 33.7059 48.6157 35.1949C48.6157 36.684 48.3924 38.0109 47.9605 39.1904C47.5286 40.3698 46.8882 41.3576 46.0543 42.1833C45.2203 43.0089 44.2076 43.6429 43.0312 44.0704C41.8398 44.498 40.4995 44.7191 38.9954 44.7191C37.4913 44.7191 36.151 44.498 34.9596 44.0704C33.7682 43.6429 32.7704 43.0089 31.9365 42.1833C31.1025 41.3576 30.4621 40.3551 30.0303 39.1904C29.5984 38.0109 29.375 36.684 29.375 35.1949C29.375 33.7059 29.5984 32.379 30.0303 31.1995C30.4621 30.02 31.1025 29.0322 31.9365 28.1919C32.7704 27.3515 33.7831 26.7323 34.9596 26.3047C36.151 25.8772 37.4913 25.656 38.9954 25.656ZM38.9954 43.9819C39.4124 43.9819 39.8145 43.8493 40.2315 43.5839C40.6484 43.3185 41.0058 42.8615 41.3335 42.198C41.6611 41.5346 41.9292 40.6352 42.1377 39.5C42.3462 38.3647 42.4504 36.9199 42.4504 35.1654C42.4504 33.411 42.3462 31.9661 42.1377 30.8309C41.9292 29.6957 41.6611 28.7963 41.3335 28.1329C41.0058 27.4694 40.6335 27.0124 40.2315 26.747C39.8294 26.4816 39.4124 26.3489 38.9954 26.3489C38.5784 26.3489 38.1763 26.4816 37.7593 26.747C37.3424 27.0124 36.9849 27.4694 36.6573 28.1329C36.3297 28.7963 36.0616 29.6957 35.8531 30.8309C35.6446 31.9661 35.5404 33.411 35.5404 35.1654C35.5404 36.9199 35.6446 38.3647 35.8531 39.5C36.0616 40.6352 36.3297 41.5346 36.6573 42.198C36.9849 42.8615 37.3572 43.3185 37.7593 43.5839C38.1763 43.8493 38.5784 43.9819 38.9954 43.9819Z" fill="#FF6D6D"/>
<path d="M75.8249 31.5833C75.8249 30.7281 75.7505 29.991 75.6015 29.416C75.4526 28.841 75.2739 28.3545 75.0356 27.9859C74.7974 27.6173 74.5442 27.3519 74.2761 27.175C73.9932 27.0128 73.7251 26.9244 73.4571 26.9244C72.9954 26.9244 72.5933 27.0718 72.2359 27.3667C71.8785 27.6615 71.5806 28.0006 71.3126 28.3545C71.0296 28.782 70.7615 29.2686 70.553 29.7846V43.083L72.7422 43.6285V44.174H62.5857V43.6285L64.76 43.083V31.5833C64.76 30.7281 64.6855 29.991 64.5366 29.416C64.3876 28.841 64.2089 28.3545 63.9707 27.9859C63.7324 27.6173 63.4792 27.3519 63.2112 27.175C62.9282 27.0128 62.6601 26.9244 62.3921 26.9244C61.9304 26.9244 61.5284 27.0718 61.171 27.3667C60.8135 27.6615 60.5157 28.0006 60.2476 28.3545C59.9498 28.782 59.6966 29.2686 59.4881 29.7846V43.083L61.6624 43.6285V44.174H51.5059V43.6285L53.6802 43.083V27.2782L51.5059 26.7327V26.1872H54.7673C55.6161 26.1872 56.316 26.3346 56.8522 26.6148C57.4032 26.8949 57.8202 27.2192 58.1478 27.5436C58.5052 27.9564 58.7733 28.3987 58.952 28.8705C59.2647 28.266 59.6519 27.7353 60.1136 27.2487C60.5306 26.8359 61.0369 26.4673 61.6326 26.1282C62.2432 25.7891 62.9729 25.627 63.8515 25.627C65.2961 25.627 66.5619 25.9513 67.6044 26.5853C68.6617 27.2192 69.4659 28.0449 70.0169 29.0474C70.3297 28.4282 70.7169 27.8679 71.1785 27.3519C71.5955 26.9244 72.1018 26.5263 72.6975 26.1725C73.3081 25.8186 74.0378 25.627 74.9165 25.627C75.9142 25.627 76.8078 25.7891 77.6418 26.0987C78.4608 26.4083 79.1757 26.8359 79.7713 27.3814C80.367 27.9269 80.8287 28.5461 81.1563 29.2686C81.4839 29.991 81.6478 30.7576 81.6478 31.5685V43.0683L83.822 43.6138V44.1593H79.1012C76.9269 44.1593 75.8398 43.083 75.8398 40.9305V31.5833H75.8249Z" fill="#FF6D6D"/>
<path d="M95.7952 44.7047C92.6976 44.7047 90.2851 43.8643 88.5725 42.1689C86.8599 40.4734 85.9961 38.1587 85.9961 35.1805C85.9961 33.6914 86.2195 32.3646 86.6514 31.1851C87.0832 30.0056 87.6938 29.0178 88.4682 28.1774C89.2426 27.3518 90.1808 26.7179 91.2829 26.2903C92.3849 25.8627 93.5911 25.6416 94.8868 25.6416C96.242 25.6416 97.4631 25.8333 98.5354 26.2166C99.6076 26.5999 100.531 27.1159 101.276 27.7646C102.02 28.4133 102.601 29.18 103.003 30.0498C103.405 30.9197 103.599 31.8485 103.599 32.8363C103.599 33.1754 103.584 33.4703 103.539 33.7209C103.494 33.9716 103.465 34.1927 103.405 34.3844C103.331 34.6203 103.271 34.8267 103.226 34.9889C102.154 35.21 101.037 35.3869 99.8459 35.5344C98.8332 35.6818 97.6567 35.7997 96.3313 35.9177C95.0059 36.0209 93.6061 36.0799 92.1615 36.0799C92.1615 37.5689 92.2658 38.8074 92.4891 39.7952C92.7125 40.783 93.0103 41.5791 93.3975 42.1689C93.7847 42.7586 94.2464 43.1714 94.7825 43.422C95.3186 43.6727 95.8994 43.8054 96.5249 43.8054C97.2546 43.8054 97.9397 43.6727 98.5801 43.4073C99.2204 43.1419 99.7714 42.7881 100.248 42.3458C100.725 41.9035 101.097 41.4022 101.38 40.842C101.663 40.2817 101.797 39.7067 101.797 39.1317H102.705C102.705 39.8542 102.541 40.5471 102.214 41.2105C101.886 41.8887 101.424 42.4785 100.814 42.9945C100.203 43.5105 99.4885 43.9233 98.6396 44.2329C97.7759 44.5425 96.8228 44.7047 95.7952 44.7047ZM92.1615 35.1805C92.9806 35.1805 93.7103 35.1658 94.3358 35.1216C94.9612 35.0773 95.4974 35.0478 95.9292 35.0036C96.4356 34.9594 96.8675 34.9004 97.2398 34.8267C97.2844 34.5908 97.344 34.3254 97.4185 34.0305C97.4631 33.7652 97.5078 33.4703 97.5376 33.1459C97.5674 32.8216 97.5972 32.4825 97.5972 32.1287C97.5972 31.0524 97.5078 30.1531 97.344 29.4159C97.1802 28.6787 96.9568 28.089 96.7036 27.6319C96.4504 27.1749 96.1526 26.8506 95.8399 26.6589C95.5123 26.4672 95.1846 26.364 94.8719 26.364C94.5591 26.364 94.2315 26.482 93.9039 26.7031C93.5762 26.939 93.2933 27.3666 93.0401 28.0005C92.787 28.6345 92.5785 29.5338 92.3998 30.6838C92.2509 31.8338 92.1615 33.3376 92.1615 35.1805Z" fill="#FF6D6D"/>
<path d="M121.424 43.805V29.2239L108.408 19.0215V43.805H121.424Z" fill="#FF6D6D"/>
<path d="M137.522 43.805V29.2239L124.715 19.0215V43.805H137.522Z" fill="#FF6D6D"/>
</svg>
