<svg width="108" height="106" viewBox="0 0 108 106" fill="none" xmlns="http://www.w3.org/2000/svg">
<g style="mix-blend-mode:multiply">
<path d="M53.8968 104.943C82.963 104.943 106.526 81.6158 106.526 52.8402C106.526 24.0646 82.963 0.737305 53.8968 0.737305C24.8305 0.737305 1.26758 24.0646 1.26758 52.8402C1.26758 81.6158 24.8305 104.943 53.8968 104.943Z" fill="white"/>
<path d="M53.8972 105.68C24.4702 105.68 0.523438 81.9728 0.523438 52.84C0.523438 23.7073 24.4702 0 53.8972 0C83.3243 0 107.271 23.7073 107.271 52.84C107.271 81.9728 83.3243 105.68 53.8972 105.68ZM53.8972 1.47433C25.2892 1.47433 2.01266 24.5181 2.01266 52.84C2.01266 81.162 25.2892 104.206 53.8972 104.206C82.5052 104.206 105.782 81.162 105.782 52.84C105.782 24.5181 82.5052 1.47433 53.8972 1.47433Z" fill="#FF6D6D"/>
<path d="M61.4022 6.02976C61.7596 6.05924 62.0723 6.07398 62.3255 6.07398L62.2957 6.30988C61.8787 6.36885 61.5213 6.67846 61.2384 7.26819L57.694 14.286L57.5898 14.2713L57.5004 14.2565L55.2517 6.42782C55.1028 5.91181 54.8496 5.63169 54.4922 5.58746L54.522 5.35156C54.8496 5.41054 55.2815 5.45477 55.8176 5.51374C56.5175 5.57271 57.0388 5.61694 57.3813 5.61694L57.3515 5.85284C57.0388 5.83809 56.8154 5.85284 56.6813 5.89707C56.5473 5.9413 56.4729 6.05924 56.458 6.20667C56.4431 6.33936 56.4729 6.53103 56.5473 6.78166L58.2004 12.7675L60.6576 7.87267C60.8661 7.4746 60.9703 7.15025 61.0001 6.91435C61.0299 6.66372 60.9554 6.47205 60.7916 6.33936C60.6278 6.20667 60.3597 6.13296 60.0023 6.08873L60.0321 5.85284C60.464 5.92655 60.9256 5.98553 61.4022 6.02976Z" fill="#FF6D6D"/>
<path d="M71.4108 9.14065C71.2618 9.14065 71.1427 9.19962 71.0534 9.31757C70.964 9.43551 70.8598 9.62718 70.7555 9.9073L68.6259 15.5098C68.5217 15.7899 68.4621 16.011 68.4621 16.1585C68.4621 16.3059 68.5068 16.4238 68.611 16.5123C68.7153 16.6008 68.9089 16.704 69.1769 16.8219L69.0876 17.0431C68.7451 16.8956 68.2685 16.704 67.6579 16.4681C67.0027 16.2174 66.5112 16.0553 66.1836 15.9521L66.2729 15.7309C66.5559 15.8194 66.7644 15.8636 66.8984 15.8636C67.0325 15.8636 67.1665 15.8046 67.2558 15.6867C67.3452 15.5687 67.4494 15.3771 67.5537 15.0969L69.6833 9.49449C69.7875 9.21436 69.8471 8.99321 69.8471 8.84578C69.8471 8.69835 69.8024 8.5804 69.6982 8.49194C69.5939 8.40348 69.4003 8.30028 69.1323 8.18233L69.2216 7.96118C69.5343 8.09387 70.0109 8.28553 70.6662 8.53617C71.2767 8.77206 71.7682 8.93424 72.1256 9.03744L72.0362 9.25859C71.7682 9.17013 71.5597 9.1259 71.4108 9.14065Z" fill="#FF6D6D"/>
<path d="M84.6633 16.9397C84.5144 16.9102 84.3655 16.9545 84.2315 17.0429C84.0974 17.1314 83.9336 17.3083 83.7549 17.5589L79.4362 23.3531L79.2128 23.1909L79.7936 13.8731L75.9663 19.0038C75.7876 19.2544 75.6684 19.4608 75.6088 19.623C75.5493 19.7852 75.5791 19.9326 75.6535 20.08C75.728 20.2275 75.9067 20.3897 76.1599 20.5961L76.0109 20.7877C75.7876 20.5961 75.4599 20.3454 75.0281 20.0211C74.6409 19.7409 74.3281 19.5198 74.0898 19.3871L74.2388 19.1954C74.477 19.3576 74.6706 19.4461 74.8196 19.4608C74.9685 19.4903 75.1174 19.4461 75.2514 19.3576C75.3855 19.2544 75.5493 19.0922 75.728 18.8416L79.2426 14.1237C79.4213 13.8731 79.5404 13.6814 79.5851 13.5488C79.6298 13.4161 79.6149 13.2834 79.5404 13.1654C79.4659 13.0475 79.317 12.9001 79.0787 12.7084L79.2277 12.5167C79.4213 12.6936 79.7191 12.9295 80.1212 13.2097C80.419 13.4308 80.6722 13.6077 80.9105 13.7404L80.4339 21.5544L83.5315 17.3968C83.7102 17.1461 83.8443 16.9397 83.8889 16.7775C83.9336 16.6154 83.9187 16.4679 83.8443 16.3205C83.7698 16.1731 83.5911 15.9961 83.3379 15.8045L83.4868 15.6128C83.7102 15.8045 84.0379 16.0551 84.4697 16.3795C84.8569 16.6596 85.1697 16.8807 85.4079 17.0134L85.259 17.2051C85.0059 17.0577 84.8123 16.9545 84.6633 16.9397Z" fill="#FF6D6D"/>
<path d="M89.6537 23.5893C90.0409 23.3091 90.443 22.9995 90.8749 22.6162C91.2472 23.1765 91.9024 24.1053 92.8406 25.4174C93.7789 26.7149 94.449 27.6289 94.8511 28.1597C94.3448 28.4546 93.9129 28.7199 93.5257 28.9853C93.1981 29.2212 92.93 29.4276 92.7364 29.5898L92.5726 29.3686C93.0491 28.9558 93.3768 28.6167 93.5704 28.3661C93.764 28.1155 93.8384 27.8501 93.8235 27.57C93.8086 27.2898 93.6299 26.9507 93.347 26.5379L92.9598 26.0072L87.3156 29.9879C87.0476 30.1795 86.854 30.3565 86.7646 30.4891C86.6752 30.6218 86.6455 30.784 86.705 30.9609C86.7497 31.1231 86.8837 31.359 87.0773 31.6539L86.8837 31.8013C86.6604 31.4475 86.3178 30.9462 85.8711 30.3417C85.3945 29.6783 85.0371 29.2065 84.7988 28.9116L84.9924 28.7642C85.2158 29.0443 85.3945 29.236 85.5434 29.3392C85.6924 29.4424 85.8413 29.4719 86.0051 29.4276C86.1689 29.3834 86.3923 29.2654 86.6604 29.0738L92.3045 25.0931L91.9173 24.5623C91.6195 24.1495 91.3514 23.8989 91.0982 23.7809C90.8451 23.663 90.5621 23.6482 90.2643 23.7514C89.9664 23.8547 89.5346 24.0463 88.9835 24.3559L88.8197 24.1348C89.0431 24.0168 89.3112 23.8399 89.6537 23.5893Z" fill="#FF6D6D"/>
<path d="M92.5121 44.0532L92.2739 44.1269C92.1845 43.8026 92.0654 43.3898 91.8867 42.8885C91.6633 42.2398 91.4846 41.7532 91.3506 41.4289L91.5888 41.3552C91.6931 41.6353 91.8122 41.8417 91.9016 41.9449C92.0058 42.0481 92.1398 42.0776 92.2888 42.0186C92.4228 41.9744 92.5866 41.8712 92.7802 41.709L94.4332 40.3674L93.495 37.6104L92.1101 37.5514C91.6633 37.5219 91.3208 37.5514 91.0825 37.6399C90.8442 37.7283 90.6953 37.861 90.6357 38.0527C90.591 38.2443 90.6208 38.5245 90.7251 38.8636L90.4868 38.9373C90.3677 38.495 90.2187 38.0527 90.0698 37.6104C89.9507 37.2713 89.8464 36.9912 89.7422 36.77L89.9805 36.6963C90.189 37.0501 90.6357 37.2418 91.291 37.2565L99.2136 37.6104L99.2732 37.7873L92.9589 42.9917C92.5717 43.3603 92.4228 43.6994 92.5121 44.0532ZM97.6797 37.7873L93.778 37.6251L94.6566 40.2199L97.6797 37.7873Z" fill="#FF6D6D"/>
<path d="M93.5981 55.3311C93.747 55.2721 93.8215 55.1984 93.8215 55.0952C93.8215 55.0363 93.8066 54.992 93.7768 54.9478C93.747 54.9036 93.6874 54.8151 93.5981 54.6972C93.3747 54.417 93.2109 54.1222 93.0917 53.8273C92.9726 53.5324 92.913 53.1933 92.913 52.8248C92.8981 51.9991 93.062 51.2915 93.3896 50.687C93.7321 50.0825 94.2087 49.6255 94.8639 49.3011C95.5043 48.9768 96.2787 48.8146 97.1871 48.7998C98.1253 48.7851 98.9444 48.9325 99.6443 49.2569C100.344 49.5812 100.895 50.0235 101.282 50.6133C101.67 51.203 101.878 51.8664 101.878 52.6036C101.878 52.928 101.848 53.2228 101.789 53.4735C101.729 53.7241 101.64 53.9453 101.536 54.1369C101.431 54.3286 101.297 54.5497 101.119 54.7856C101.044 54.8888 101 54.9773 101 55.0363C101 55.1837 101.253 55.2869 101.744 55.3311V55.6112C101.223 55.5818 100.285 55.5818 98.9444 55.6112V55.3311C99.3763 55.2574 99.7337 55.1689 100.017 55.0805C100.3 54.992 100.538 54.8593 100.746 54.6972C101.029 54.4613 101.268 54.1517 101.431 53.7683C101.595 53.385 101.67 53.0017 101.67 52.5889C101.655 52.0581 101.476 51.6011 101.119 51.203C100.761 50.8049 100.255 50.5101 99.6145 50.2889C98.9593 50.0825 98.2147 49.9793 97.3509 49.994C96.368 50.0088 95.5788 50.1267 94.9533 50.3479C94.3278 50.569 93.881 50.8934 93.5832 51.3209C93.2853 51.7485 93.1513 52.294 93.1662 52.9574C93.1811 53.444 93.3151 53.8568 93.5683 54.2106C93.6725 54.3581 93.7619 54.4465 93.8661 54.4908C93.9555 54.535 94.0895 54.5497 94.2533 54.5497L95.4298 54.535C95.7723 54.535 96.0106 54.4908 96.1744 54.4318C96.3234 54.3728 96.4425 54.2549 96.4872 54.0779C96.5467 53.9158 96.5765 53.6504 96.5765 53.2965H96.8148C96.7999 53.6946 96.785 54.2549 96.7999 55.0068C96.8148 55.567 96.8297 55.9946 96.8595 56.26H96.6212C96.6063 56.0683 96.5616 55.9356 96.517 55.8619C96.4723 55.7882 96.368 55.7292 96.234 55.6997C96.1 55.6702 95.8766 55.6555 95.5639 55.6702L93.1513 55.7145V55.4786C93.2853 55.4196 93.4492 55.3901 93.5981 55.3311Z" fill="#FF6D6D"/>
<path d="M91.8276 67.8781C91.3957 67.7454 90.8894 67.6127 90.3086 67.4947C90.5022 66.9787 90.7851 66.1089 91.1872 64.8704C91.6638 63.3961 92.0063 62.2756 92.2148 61.5237L92.4531 61.5974C92.3786 61.8775 92.3488 62.0839 92.3488 62.2314C92.3637 62.3788 92.4233 62.482 92.5424 62.5705C92.6616 62.6589 92.8701 62.7474 93.153 62.8358L98.9163 64.6345C99.2142 64.723 99.4226 64.7672 99.5716 64.7672C99.7205 64.7672 99.8396 64.7082 99.929 64.5903C100.018 64.4723 100.108 64.2807 100.212 64.0153L100.45 64.089C100.182 64.8409 99.8247 65.9467 99.3482 67.421C98.9908 68.5415 98.7376 69.3524 98.6185 69.8389C98.127 69.6325 97.6802 69.4556 97.2633 69.3376C96.9654 69.2492 96.7123 69.1755 96.5335 69.146L96.6229 68.8806C97.1441 68.9838 97.5462 69.028 97.8143 69.028C98.0823 69.028 98.3057 68.9396 98.4844 68.7627C98.6631 68.6005 98.8121 68.3056 98.9461 67.9075L99.2439 66.9492C99.3333 66.6691 99.378 66.4627 99.3631 66.33C99.3482 66.1973 99.3035 66.0794 99.1844 65.9909C99.0652 65.9024 98.8716 65.814 98.5738 65.7255L95.8336 64.8704L95.5953 65.6371C95.4762 66.0204 95.506 66.3153 95.6996 66.5217C95.8932 66.7281 96.1017 66.8755 96.3399 66.9787C96.5782 67.0819 96.7271 67.1556 96.7867 67.1851L96.6974 67.4505C96.3251 67.3031 95.9676 67.1704 95.6102 67.0672L95.0592 66.905C94.672 66.787 94.1061 66.6249 93.3913 66.4627L93.4806 66.1973C93.5402 66.2121 93.7338 66.2415 94.0614 66.3153C94.3891 66.3742 94.672 66.3447 94.8954 66.2268C95.1188 66.1089 95.2677 65.8877 95.372 65.5781L95.6102 64.8114L92.8105 63.9416C92.5126 63.8531 92.3042 63.8089 92.1552 63.8089C92.0063 63.8089 91.8872 63.8679 91.8127 63.9858C91.7234 64.1038 91.634 64.2954 91.5446 64.5755L91.2766 65.4159C91.1277 65.9024 91.0681 66.2858 91.1277 66.5659C91.1723 66.8608 91.3213 67.0967 91.5744 67.3031C91.8276 67.4947 92.2148 67.7159 92.736 67.9518L92.6467 68.2171C92.468 68.0845 92.185 67.996 91.8276 67.8781Z" fill="#FF6D6D"/>
<path d="M87.5831 85.9677C87.6427 85.8351 87.6278 85.7024 87.5682 85.5697C87.5086 85.437 87.3597 85.2748 87.1363 85.0537L82.758 80.9108C82.5346 80.7044 82.3559 80.5717 82.2219 80.5127C82.0879 80.4537 81.9538 80.4537 81.8198 80.5127C81.6858 80.5717 81.522 80.7044 81.3135 80.9108L81.1348 80.7486C81.4177 80.498 81.7751 80.1294 82.2368 79.6723C82.7133 79.1711 83.0708 78.7877 83.2941 78.5371L83.4728 78.6993C83.2792 78.9204 83.1601 79.0974 83.1005 79.2153C83.041 79.348 83.0559 79.4807 83.1154 79.6134C83.175 79.7461 83.3239 79.9082 83.5473 80.1294L87.9256 84.2723C88.149 84.4787 88.3277 84.6114 88.4617 84.6703C88.5958 84.7293 88.7298 84.7293 88.8638 84.6703C88.9979 84.6114 89.1617 84.4787 89.3702 84.2723L89.5489 84.4344C89.2957 84.6556 88.9234 85.0242 88.4469 85.5254C87.9852 85.9972 87.6427 86.3806 87.4044 86.6607L87.2257 86.4985C87.4044 86.2773 87.5235 86.1004 87.5831 85.9677Z" fill="#FF6D6D"/>
<path d="M75.1764 94.9617C75.2658 94.829 75.2807 94.6963 75.2509 94.5341C75.2211 94.372 75.1169 94.1655 74.953 93.8854L71.2598 87.6785L71.498 87.531L79.927 91.7034L76.6657 86.2189C76.5018 85.9535 76.3678 85.7618 76.2338 85.6586C76.0997 85.5554 75.9508 85.5112 75.787 85.526C75.6232 85.5407 75.3998 85.6292 75.1169 85.7766L74.9828 85.5702C75.2509 85.4522 75.6083 85.2458 76.07 84.9805C76.4869 84.7298 76.7997 84.5382 77.0231 84.376L77.1422 84.5824C76.9039 84.7298 76.7401 84.8772 76.6657 85.0099C76.5763 85.1426 76.5614 85.2753 76.5912 85.4375C76.621 85.5997 76.7252 85.8061 76.889 86.0862L79.8973 91.1432C80.0462 91.4085 80.1802 91.5855 80.2994 91.6739C80.4185 91.7624 80.5376 91.8066 80.6866 91.7771C80.8206 91.7476 81.0291 91.6739 81.2822 91.5412L81.4014 91.7476C81.1631 91.8656 80.8355 92.0425 80.4036 92.2931C80.0909 92.4701 79.8228 92.647 79.5994 92.7944L72.5256 89.3002L75.1764 93.7527C75.3402 94.0181 75.4743 94.2098 75.6083 94.313C75.7274 94.4162 75.8764 94.4604 76.0551 94.4457C76.2338 94.4309 76.4572 94.3425 76.7401 94.195L76.8592 94.4014C76.5912 94.5194 76.2338 94.7258 75.7721 94.9912C75.3551 95.2418 75.0424 95.4335 74.819 95.5956L74.6999 95.3892C74.9233 95.2271 75.0871 95.0796 75.1764 94.9617Z" fill="#FF6D6D"/>
<path d="M66.9862 96.8924C67.0904 97.3495 67.2244 97.8507 67.4032 98.3815C66.733 98.4995 65.6161 98.7353 64.0375 99.0597C62.4589 99.3988 61.3569 99.6494 60.7016 99.8116C60.6272 99.2366 60.5527 98.7353 60.4485 98.2783C60.3591 97.8802 60.2847 97.5559 60.1953 97.32L60.4634 97.261C60.657 97.8655 60.8357 98.293 60.9995 98.5732C61.1633 98.8533 61.3718 99.0302 61.6399 99.1187C61.9079 99.2071 62.2951 99.1924 62.7866 99.0892L63.4269 98.9565L61.9675 92.2483C61.893 91.9239 61.8186 91.688 61.7143 91.5553C61.6101 91.4227 61.4909 91.3342 61.3122 91.3194C61.1335 91.29 60.8655 91.3195 60.508 91.3784L60.4634 91.1425C60.8804 91.0836 61.476 90.9656 62.2207 90.8034C63.0099 90.6265 63.6056 90.4938 63.9779 90.3906L64.0226 90.6265C63.6652 90.715 63.4269 90.8034 63.278 90.8919C63.1291 90.9804 63.0397 91.113 63.0099 91.2752C62.9802 91.4374 62.9951 91.688 63.0695 92.0124L64.529 98.7206L65.1693 98.5879C65.6608 98.4847 66.0182 98.3373 66.2267 98.1456C66.4352 97.9539 66.5543 97.7033 66.5841 97.3937C66.6139 97.0841 66.599 96.6123 66.5245 95.9931L66.7926 95.9341C66.8373 96.17 66.8968 96.4944 66.9862 96.8924Z" fill="#FF6D6D"/>
<path d="M47.2248 92.7502C47.2695 92.2932 47.2844 91.7771 47.2844 91.2021C47.8354 91.2759 48.7587 91.3643 50.0693 91.4823C51.6181 91.615 52.7945 91.7182 53.5987 91.7624L53.5838 91.9983C53.286 91.9835 53.0775 91.9983 52.9435 92.0425C52.8094 92.0867 52.7052 92.1605 52.6456 92.2932C52.5861 92.4258 52.5414 92.647 52.5116 92.9419L51.9755 98.9129C51.9457 99.2078 51.9606 99.4289 51.9904 99.5764C52.0201 99.7238 52.1095 99.827 52.2435 99.886C52.3776 99.9449 52.5861 100.004 52.869 100.033L52.8541 100.269C52.0648 100.181 50.8883 100.063 49.3395 99.9302C48.1482 99.827 47.2993 99.768 46.793 99.7385C46.8972 99.2225 46.9717 98.7507 47.0015 98.3232C47.0312 98.0136 47.0461 97.7629 47.0312 97.5713L47.3142 97.6007C47.3291 98.1315 47.3589 98.5148 47.4333 98.7802C47.4929 99.0456 47.6269 99.2373 47.8354 99.3699C48.029 99.5026 48.3567 99.5911 48.7736 99.6206L49.7863 99.709C50.0842 99.7385 50.2926 99.7238 50.4267 99.6943C50.5607 99.6648 50.665 99.5763 50.7245 99.4437C50.7841 99.311 50.8288 99.0898 50.8585 98.795L51.1117 95.9642L50.3075 95.8905C49.9054 95.861 49.6225 95.9495 49.4587 96.1854C49.3098 96.4213 49.1906 96.6572 49.1459 96.9078C49.0864 97.1585 49.0566 97.3206 49.0417 97.3943L48.7587 97.3649C48.8183 96.9668 48.863 96.5982 48.9077 96.2296L48.9523 95.6546C48.9821 95.2418 49.0119 94.6816 49.0417 93.9444L49.3247 93.9739C49.3247 94.0329 49.3395 94.2245 49.3395 94.5636C49.3544 94.9027 49.4289 95.1681 49.6076 95.345C49.7714 95.5367 50.0246 95.6399 50.3522 95.6694L51.1564 95.7431L51.4096 92.8534C51.4393 92.5585 51.4245 92.3374 51.3947 92.1899C51.3649 92.0573 51.2755 91.9541 51.1415 91.8951C51.0075 91.8361 50.799 91.7919 50.516 91.7624L49.6225 91.6887C49.1162 91.6444 48.729 91.6739 48.446 91.7919C48.1779 91.8951 47.9695 92.1015 47.8205 92.3816C47.6716 92.6617 47.5525 93.0893 47.4333 93.6495L47.1504 93.6201C47.1504 93.3989 47.1802 93.104 47.2248 92.7502Z" fill="#FF6D6D"/>
<path d="M35.5039 87.2805C35.7273 87.2363 35.9805 87.2805 36.2486 87.3984C36.5613 87.5311 36.7698 87.7228 36.8889 87.9734C37.0081 88.2388 37.0229 88.6074 36.9485 89.0939L36.7251 90.3029C36.6506 90.7304 36.606 91.0548 36.5911 91.3054C36.5762 91.5413 36.6357 91.7625 36.74 91.9541C36.8442 92.1458 37.0378 92.2932 37.3208 92.4112L38.393 92.8535L39.4802 90.2881C39.5993 90.008 39.6589 89.8016 39.6738 89.6542C39.6887 89.5067 39.6291 89.3888 39.5248 89.2856C39.4206 89.1824 39.2419 89.0792 38.9738 88.9612L39.0632 88.7401C39.4057 88.9023 39.8674 89.1087 40.4779 89.3593C41.1183 89.6247 41.6098 89.8163 41.9374 89.9196L41.848 90.1407C41.5651 90.0375 41.3566 89.9933 41.2226 89.9785C41.0736 89.9785 40.9545 90.0228 40.8651 90.1407C40.7609 90.2439 40.6567 90.4356 40.5375 90.7157L38.1994 96.2444C38.0803 96.5246 38.0207 96.731 38.0058 96.8784C37.9909 97.0258 38.0505 97.1438 38.1548 97.247C38.259 97.3502 38.4377 97.4534 38.7058 97.5861L38.6164 97.8072C38.3037 97.6598 37.8569 97.4534 37.2612 97.2027C36.9634 97.0848 36.6506 96.9521 36.2932 96.8047C35.9358 96.6573 35.6975 96.5688 35.5635 96.5098C34.9827 96.2592 34.5211 95.9791 34.1785 95.64C33.836 95.3009 33.6424 94.947 33.5531 94.5637C33.4637 94.1804 33.5084 93.8118 33.6722 93.4432C33.7913 93.1483 33.9849 92.883 34.253 92.6471C34.5211 92.4112 34.8636 92.2343 35.2806 92.1458C35.6975 92.0573 36.2039 92.0721 36.7549 92.2048L36.6209 92.131C36.3081 91.9394 36.0698 91.7477 35.9209 91.5413C35.772 91.3497 35.6678 91.1285 35.638 90.8926C35.5933 90.6567 35.6082 90.3618 35.6678 90.008L35.8762 88.7548C35.9209 88.5042 35.9507 88.3125 35.9507 88.1651C35.9507 88.0177 35.9358 87.8997 35.8911 87.8113C35.8465 87.7228 35.772 87.6491 35.6678 87.6196C35.5486 87.5606 35.4295 87.5606 35.3252 87.5901C35.221 87.6196 35.0721 87.6933 34.8785 87.7965L34.7593 87.6048C35.0274 87.4427 35.2806 87.3247 35.5039 87.2805ZM36.2486 92.5291C35.8911 92.5733 35.6082 92.706 35.3848 92.9272C35.1614 93.1483 34.9678 93.4432 34.804 93.8265C34.5508 94.431 34.4913 94.9618 34.6551 95.3893C34.8189 95.8169 35.221 96.1707 35.8911 96.4508C36.1294 96.554 36.3081 96.5983 36.457 96.5835C36.5911 96.5835 36.7102 96.5246 36.8145 96.4066C36.9187 96.2887 37.0229 96.097 37.1272 95.8316L38.2888 93.0894L37.5293 92.7798C37.0378 92.5733 36.606 92.4849 36.2486 92.5291Z" fill="#FF6D6D"/>
<path d="M23.8887 89.2853C24.0227 89.3296 24.1567 89.3001 24.2759 89.2264C24.395 89.1526 24.5588 88.9905 24.7524 88.7546L28.4904 84.0367C28.684 83.8008 28.8031 83.6092 28.8478 83.4765C28.8924 83.3438 28.8776 83.2111 28.8031 83.0931C28.7286 82.9752 28.5797 82.813 28.3563 82.6214L28.5053 82.4297C28.7882 82.6803 29.1754 83.0047 29.6966 83.4027C30.2476 83.8303 30.6646 84.1399 30.9476 84.3316L30.7987 84.5232C30.5604 84.3463 30.3668 84.2431 30.2328 84.2136C30.0987 84.1694 29.9647 84.1841 29.8456 84.2726C29.7264 84.3463 29.5626 84.5085 29.369 84.7444L25.631 89.4623C25.4374 89.6981 25.3183 89.8898 25.2736 90.0225C25.229 90.1552 25.2438 90.2879 25.3183 90.4058C25.3928 90.5238 25.5417 90.6859 25.7651 90.8776L25.6162 91.0693C25.363 90.8481 24.9609 90.5238 24.4099 90.0815C23.8887 89.6834 23.4717 89.3738 23.1738 89.1674L23.3228 88.9757C23.5759 89.1379 23.7546 89.2411 23.8887 89.2853Z" fill="#FF6D6D"/>
<path d="M14.2687 78.7881C14.2091 78.1246 14.358 77.4612 14.7005 76.8272C15.058 76.1785 15.5941 75.6035 16.3387 75.058C17.0684 74.542 17.7981 74.2029 18.5576 74.0702C19.3171 73.9375 20.0171 73.9818 20.6723 74.2324C21.3276 74.483 21.8786 74.9106 22.3105 75.5151C22.7721 76.1343 23.0253 76.783 23.0849 77.4464C23.1444 78.1099 22.9955 78.7733 22.653 79.4073C22.2956 80.056 21.7595 80.631 21.0149 81.1765C20.2851 81.6925 19.5554 82.0316 18.7959 82.1643C18.0513 82.297 17.3365 82.2528 16.6812 82.0021C16.026 81.7515 15.4749 81.3239 15.0431 80.7342C14.5814 80.1002 14.3282 79.4515 14.2687 78.7881ZM16.5025 81.4124C17.0237 81.5156 17.6194 81.4714 18.2747 81.265C18.9299 81.0586 19.5852 80.7195 20.2702 80.2182C20.9553 79.7317 21.4914 79.2009 21.8637 78.6406C22.2509 78.0804 22.4594 77.5202 22.4892 76.9894C22.5339 76.4586 22.3998 75.9869 22.1169 75.5888C21.8041 75.176 21.4021 74.9106 20.8659 74.8074C20.3447 74.7042 19.749 74.7484 19.0938 74.9548C18.4385 75.1612 17.7832 75.5003 17.0982 75.9869C16.4132 76.4734 15.877 77.0041 15.5047 77.5791C15.1175 78.1394 14.909 78.6849 14.8644 79.2304C14.8197 79.7611 14.9537 80.2329 15.2367 80.631C15.5494 81.0438 15.9664 81.3092 16.5025 81.4124Z" fill="#FF6D6D"/>
<path d="M15.4145 61.0374C15.5933 61.1701 15.7273 61.3913 15.8166 61.6861C15.9209 61.9957 15.906 62.2906 15.7869 62.5412C15.6677 62.8066 15.3848 63.0573 14.9529 63.3079L13.8658 63.9124C13.4934 64.1335 13.2105 64.3105 13.0169 64.4579C12.8233 64.6053 12.6893 64.7822 12.6148 64.9886C12.5403 65.1951 12.5403 65.4309 12.6297 65.7258L12.9722 66.8316L15.6528 66.0059C15.9507 65.9175 16.1443 65.829 16.2634 65.7406C16.3825 65.6521 16.4421 65.5341 16.457 65.4015C16.4719 65.2688 16.4272 65.0476 16.3528 64.7675L16.591 64.6938C16.6804 65.0476 16.8144 65.5489 17.0229 66.1681C17.2314 66.8316 17.3952 67.3181 17.5144 67.6277L17.2761 67.7014C17.1718 67.4213 17.0825 67.2296 16.9931 67.1264C16.9038 67.0232 16.7846 66.9495 16.6357 66.9495C16.4868 66.9495 16.2634 66.979 15.9805 67.0822L10.2023 68.8514C9.90442 68.9399 9.71082 69.0283 9.59168 69.1168C9.47254 69.2052 9.41298 69.3232 9.39808 69.4559C9.38319 69.6033 9.42787 69.8097 9.50233 70.0898L9.26405 70.1635C9.18959 69.8392 9.05556 69.3674 8.86196 68.7482C8.77261 68.4533 8.65347 68.1142 8.53433 67.7604C8.4152 67.4065 8.32584 67.1559 8.28116 67.0232C8.08757 66.4187 8.028 65.888 8.07267 65.4162C8.11735 64.9444 8.26627 64.5611 8.50455 64.2515C8.74282 63.9419 9.05556 63.7355 9.44276 63.6175C9.7406 63.5291 10.0682 63.4996 10.4256 63.5438C10.7831 63.588 11.1256 63.7355 11.483 64.0008C11.8404 64.2662 12.1383 64.6495 12.3914 65.1656L12.3765 65.0181C12.3319 64.6495 12.317 64.3547 12.3765 64.104C12.4361 63.8534 12.5403 63.647 12.6893 63.4701C12.8531 63.2932 13.0914 63.1015 13.4041 62.9246L14.5061 62.2759C14.7295 62.1579 14.9082 62.04 15.0125 61.9515C15.1167 61.8631 15.2061 61.7746 15.2507 61.6861C15.2954 61.5977 15.2954 61.4945 15.2656 61.3913C15.2209 61.2586 15.1614 61.1701 15.072 61.1112C14.9827 61.0522 14.8338 60.9785 14.6253 60.9047L14.6997 60.6836C14.9976 60.7868 15.2507 60.9047 15.4145 61.0374ZM11.8553 64.9886C11.6021 64.7528 11.3043 64.6201 10.9916 64.5906C10.6788 64.5611 10.3214 64.6053 9.91931 64.738C9.27894 64.9297 8.84707 65.2393 8.60879 65.6373C8.37052 66.0354 8.37052 66.5809 8.57901 67.2444C8.65347 67.4803 8.74282 67.6572 8.83218 67.7604C8.92153 67.8636 9.05556 67.9226 9.20448 67.9226C9.35341 67.9226 9.57679 67.8783 9.84485 67.8046L12.7042 66.92L12.4659 66.1386C12.317 65.6079 12.1085 65.2245 11.8553 64.9886Z" fill="#FF6D6D"/>
<path d="M14.2681 47.046C14.834 46.7954 15.1765 46.3236 15.3254 45.6159C15.3701 45.3505 15.3701 45.0851 15.2956 44.8345C15.2212 44.5839 15.0871 44.3627 14.8786 44.1711C14.6701 43.9794 14.3872 43.8467 14.0149 43.7877C13.7021 43.7288 13.4192 43.7582 13.1511 43.8614C12.8831 43.9646 12.615 44.1268 12.3618 44.348C12.1087 44.5691 11.8108 44.864 11.4832 45.2326C11.1109 45.6454 10.7833 45.9845 10.5003 46.2204C10.2174 46.471 9.90463 46.6479 9.5621 46.7806C9.21958 46.9133 8.83238 46.9281 8.40051 46.8543C7.95374 46.7659 7.58144 46.6037 7.31338 46.3383C7.04532 46.0729 6.85172 45.7633 6.76236 45.3947C6.67301 45.0262 6.67301 44.6428 6.74747 44.23C6.79215 43.9794 6.85172 43.7877 6.92618 43.6108C7.00064 43.4339 7.0751 43.3012 7.16445 43.198C7.25381 43.0948 7.34316 42.9768 7.4623 42.8589C7.61122 42.6967 7.68568 42.5788 7.71547 42.4903C7.73036 42.4166 7.70057 42.3576 7.62611 42.2987C7.55165 42.2397 7.41762 42.1954 7.23892 42.1365L7.28359 41.8711C7.74525 41.989 8.54943 42.166 9.72592 42.3871L9.68124 42.6525C9.26426 42.6083 8.87706 42.623 8.48986 42.7115C8.11756 42.7852 7.78993 42.9474 7.52187 43.198C7.25381 43.4339 7.0751 43.773 7.00064 44.1858C6.94107 44.4659 6.95596 44.7166 7.03042 44.9672C7.10488 45.2178 7.23892 45.4095 7.41762 45.5717C7.61122 45.7338 7.8346 45.837 8.10266 45.896C8.53454 45.9697 8.90685 45.9108 9.21958 45.7044C9.53232 45.498 9.83016 45.2326 10.1131 44.923C10.3961 44.6134 10.5748 44.4069 10.679 44.3037C11.096 43.8614 11.4385 43.5223 11.7215 43.2717C12.0044 43.0211 12.3172 42.8442 12.6597 42.7262C13.0022 42.6083 13.3745 42.5935 13.7766 42.6672C14.2681 42.7557 14.6701 42.9474 14.968 43.2275C15.2658 43.5223 15.4594 43.8614 15.5637 44.2743C15.6679 44.6871 15.6679 45.1294 15.5786 45.6012C15.5041 45.9845 15.4148 46.2793 15.2807 46.5152C15.1616 46.7511 14.9978 46.9575 14.8191 47.1492C14.6701 47.3114 14.5957 47.4293 14.5659 47.5178C14.551 47.5915 14.5808 47.6505 14.6553 47.7094C14.7297 47.7684 14.8637 47.8274 15.0424 47.8716L14.9978 48.137C14.5659 48.0191 13.6128 47.8274 12.1385 47.562L12.1831 47.2966C13.0171 47.3704 13.7021 47.2966 14.2681 47.046Z" fill="#FF6D6D"/>
<path d="M11.3203 34.6171C10.9033 34.396 10.4267 34.1895 9.89062 33.9831C10.2183 33.4082 10.7693 32.4056 11.5139 30.9755C12.2585 29.5601 12.7797 28.5576 13.0627 27.9531C13.5541 28.2627 14.0009 28.5281 14.403 28.7345C14.7604 28.9262 15.0731 29.0589 15.3114 29.1621L15.1774 29.4127C14.5817 29.1768 14.1349 29.0294 13.8222 28.9852C13.5094 28.9262 13.2265 28.9852 12.9882 29.1326C12.7499 29.28 12.5117 29.5749 12.2883 30.0172L11.9904 30.6069L18.1409 33.7767C18.4388 33.9389 18.677 34.0126 18.8409 34.0274C19.0047 34.0421 19.1536 33.9979 19.2876 33.8799C19.4217 33.762 19.5706 33.5408 19.7493 33.2312L19.9727 33.3492C19.7493 33.7178 19.4663 34.2338 19.1089 34.912C18.7366 35.6197 18.4686 36.1652 18.3047 36.5043L18.0814 36.3863C18.2303 36.062 18.3345 35.8113 18.3494 35.6491C18.3792 35.4722 18.3345 35.3248 18.2154 35.1921C18.0962 35.0594 17.9026 34.9267 17.6048 34.7645L11.4543 31.58L11.1416 32.155C10.9033 32.5973 10.7991 32.9511 10.8139 33.2312C10.8288 33.5114 10.948 33.762 11.1714 33.9831C11.3947 34.2043 11.767 34.4992 12.3032 34.8383L12.1691 35.0889C11.9755 34.9709 11.6777 34.8088 11.3203 34.6171Z" fill="#FF6D6D"/>
<path d="M21.8336 17.6771C22.0868 17.4265 22.2953 17.1906 22.4442 17.0137L22.6229 17.1906C22.5336 17.3233 22.4889 17.5149 22.5038 17.7361C22.5187 17.9572 22.5783 18.2669 22.6974 18.6354L24.0526 22.6309L25.6312 24.1789C25.8545 24.3853 26.0184 24.5328 26.1524 24.5917C26.2864 24.6507 26.4204 24.6507 26.5545 24.5917C26.6885 24.5328 26.8523 24.4001 27.0757 24.2084L27.2544 24.3853C26.9715 24.636 26.5992 24.9898 26.1375 25.4469C25.6461 25.9334 25.2886 26.3167 25.0653 26.5673L24.8865 26.3904C25.0801 26.1693 25.2142 26.0071 25.2737 25.8744C25.3333 25.7417 25.3333 25.609 25.2589 25.4763C25.1993 25.3436 25.0504 25.1667 24.8419 24.9603L23.5314 23.6777L18.5573 22.2328C18.2595 22.1443 18.0361 22.1149 17.8872 22.1296C17.7383 22.1443 17.634 22.1886 17.5596 22.2623L17.3809 22.0854C17.6191 21.879 17.8872 21.6431 18.1553 21.363C18.7063 20.8027 19.1084 20.4046 19.3317 20.1393L19.5105 20.3162C19.1084 20.7142 19.019 21.0239 19.2424 21.245C19.3317 21.3335 19.4509 21.3924 19.6296 21.4514L23.8143 22.7341L22.7123 19.4758C22.5485 19.004 22.3847 18.6797 22.2059 18.5175C22.0421 18.3553 21.8634 18.3111 21.6698 18.3701C21.4762 18.429 21.2528 18.5765 20.9848 18.8271L20.8061 18.6502C21.1635 18.3258 21.4911 18.0015 21.8336 17.6771Z" fill="#FF6D6D"/>
<path d="M30.8427 11.7352C30.7534 11.8384 30.7087 11.9711 30.7385 12.1186C30.7683 12.266 30.8427 12.4724 30.9916 12.7378L33.8658 18.0159C34.0148 18.2813 34.1339 18.4582 34.253 18.5614C34.3573 18.6646 34.4913 18.6941 34.6254 18.6793C34.7594 18.6646 34.9679 18.5761 35.221 18.4435L36.0103 18.0159C36.4571 17.78 36.7698 17.5294 36.9337 17.2787C37.0975 17.0281 37.157 16.748 37.1124 16.4089C37.0677 16.0698 36.9337 15.6422 36.6954 15.082L36.9485 14.9493C37.0528 15.1852 37.2017 15.48 37.3953 15.8339C37.6187 16.232 37.8868 16.6743 38.2144 17.1608C37.7229 17.3967 36.889 17.8242 35.7423 18.4435C34.3722 19.1806 33.3297 19.7409 32.6447 20.1389L32.5255 19.9325C32.7787 19.7851 32.9574 19.6524 33.0468 19.5492C33.1361 19.446 33.1808 19.3133 33.151 19.1659C33.1212 19.0184 33.0468 18.812 32.8979 18.5467L29.9939 13.2685C29.8449 13.0032 29.7258 12.8262 29.6067 12.723C29.5024 12.6198 29.3684 12.5904 29.2344 12.6051C29.0854 12.6198 28.8918 12.6936 28.6238 12.8262L28.5195 12.6051C28.8323 12.4724 29.2939 12.2365 29.9045 11.8974C30.4853 11.5878 30.9321 11.3372 31.2448 11.1455L31.3639 11.3519C31.1108 11.4993 30.947 11.632 30.8427 11.7352Z" fill="#FF6D6D"/>
<path d="M48.983 12.6787C49.0723 13.121 49.2064 13.6223 49.3702 14.1825C48.8192 14.271 47.9107 14.4331 46.63 14.6838C45.0961 14.9787 43.9494 15.2145 43.1601 15.3915L43.1154 15.1556C43.3984 15.0819 43.6069 15.0229 43.726 14.9344C43.8452 14.8607 43.9196 14.7428 43.9345 14.6101C43.9494 14.4626 43.9345 14.2415 43.8749 13.9466L42.7134 8.06404C42.6538 7.76917 42.5942 7.56276 42.5049 7.43007C42.4155 7.29738 42.3262 7.22367 42.1772 7.20892C42.0432 7.17944 41.8198 7.19418 41.5369 7.23841L41.4922 7.00252C42.2815 6.86983 43.4431 6.66342 44.9621 6.36856C46.1386 6.13266 46.9725 5.97049 47.4491 5.85254C47.4938 6.3833 47.5682 6.85508 47.6427 7.2679C47.7023 7.57751 47.7618 7.8134 47.8214 7.99032L47.5533 8.04929C47.3895 7.54802 47.2406 7.17944 47.1066 6.94354C46.9725 6.70765 46.7789 6.56022 46.5555 6.4865C46.3173 6.41279 46.0045 6.41278 45.5727 6.50124L44.5749 6.69291C44.2919 6.75188 44.0834 6.81085 43.9643 6.88457C43.8452 6.95829 43.7707 7.06149 43.7409 7.20892C43.726 7.35636 43.7409 7.57751 43.8005 7.87237L44.3515 10.6736L45.1408 10.5114C45.5429 10.4377 45.7812 10.2608 45.8705 9.99541C45.9599 9.73003 45.9896 9.4794 45.9748 9.22876C45.9599 8.97812 45.945 8.81595 45.945 8.74223L46.213 8.68326C46.2577 9.08133 46.3173 9.44991 46.3917 9.80375L46.5109 10.364C46.5853 10.7621 46.7194 11.3223 46.913 12.03L46.6449 12.089C46.63 12.03 46.5704 11.8531 46.4662 11.5287C46.3619 11.2044 46.213 10.9832 45.9896 10.8505C45.7663 10.7178 45.5131 10.6883 45.1855 10.7473L44.3962 10.8948L44.9621 13.7402C45.0216 14.0351 45.0812 14.2415 45.1557 14.3742C45.2301 14.4921 45.3344 14.5658 45.4833 14.5953C45.6173 14.6101 45.8407 14.5953 46.1237 14.5364L47.0023 14.3594C47.4938 14.2562 47.8661 14.1235 48.1043 13.9466C48.3426 13.7697 48.4767 13.5191 48.5362 13.2095C48.5958 12.8998 48.5958 12.4575 48.5511 11.8826L48.8192 11.8236C48.8638 12.0447 48.9085 12.3249 48.983 12.6787Z" fill="#FF6D6D"/>
<path d="M38.9453 68.9841C38.2603 68.07 37.6646 67.0674 37.1434 65.9617C36.6222 64.8559 36.2052 63.7354 35.8924 62.5855C35.2074 57.5285 35.1925 52.619 35.8329 47.8569C36.4732 43.0948 37.5157 38.4064 38.9453 33.777C39.1836 33.261 39.7049 33.0104 40.509 33.0104C41.3132 33.0104 42.1025 33.1873 42.9067 33.5411C43.7109 33.895 44.3661 34.3667 44.8874 34.9565C45.4086 35.5462 45.5277 36.1654 45.2448 36.7994C44.798 37.743 44.3661 39.0256 43.9342 40.6179C43.5024 42.2249 43.0705 43.9941 42.6833 45.9255C42.2812 47.8569 41.9387 49.8915 41.6408 51.9998C41.343 54.108 41.1196 56.1426 40.9856 58.074C40.8516 60.0054 40.8218 61.7598 40.8962 63.3226C40.9707 64.8854 41.209 66.1238 41.6111 67.0232C43.4875 64.5316 45.2001 61.9515 46.7638 59.2829C48.3275 56.6144 49.7869 53.9164 51.157 51.1594C52.5271 48.4171 53.8376 45.6454 55.0736 42.8294C56.3097 40.0282 57.5309 37.2564 58.7222 34.5289C59.3179 33.143 59.9136 31.6835 60.4944 30.1502C61.0752 28.6021 61.8347 27.29 62.8027 26.1842C63.2048 25.8304 63.5175 25.7124 63.726 25.8304C63.9494 25.9483 64.0983 26.1695 64.1728 26.5086C64.2473 26.8477 64.2919 27.2015 64.2919 27.5701C64.2919 27.9387 64.2919 28.2335 64.2919 28.4252C64.009 30.2386 63.7707 32.0373 63.5771 33.8212C63.3835 35.6052 62.9516 37.3154 62.3262 38.9814C61.2837 41.591 60.2264 44.171 59.1243 46.7511C58.0223 49.3165 56.8458 51.8523 55.5949 54.3439C54.3439 56.8356 52.9738 59.2535 51.5293 61.5976C50.0699 63.9566 48.4913 66.1976 46.7638 68.3206C45.4086 70.0161 44.0534 70.9154 42.728 71.0186C41.343 71.1366 40.1069 70.4436 38.9453 68.9841Z" fill="#FF6D6D" stroke="white" stroke-miterlimit="10"/>
<path d="M63.6081 62.2909C62.8039 61.1852 62.0146 60.0647 61.2402 58.9147C60.4658 57.7647 60.0786 56.5115 60.0786 55.1257C60.0786 53.5924 60.5254 52.1328 61.4189 50.7616C62.3125 49.4053 63.34 48.2995 64.5016 47.4739C64.9782 47.1643 65.4696 46.8989 65.961 46.7072C66.4525 46.5156 66.9886 46.5303 67.5545 46.7662C67.7928 46.8842 68.046 46.9726 68.2991 47.0316C68.5523 47.0906 68.7906 47.1643 68.9842 47.238C69.1778 47.3117 69.4012 47.4297 69.6394 47.5918C69.8777 47.754 69.9969 47.9604 69.9969 48.2405C69.9969 49.3463 70.0266 50.2456 70.0862 50.9386C70.1458 51.6315 70.2351 52.2212 70.3543 52.7225C70.4734 53.2238 70.5925 53.6513 70.7117 54.0199C70.8308 54.4032 70.95 54.8013 71.0691 55.2289C71.1435 55.6269 71.1287 55.966 71.0095 56.2314C70.8904 56.5115 70.5925 56.541 70.116 56.3494C69.2373 56.0398 68.5821 55.4058 68.1651 54.4475C67.7481 53.4892 67.4354 52.634 67.2418 51.8379C67.1971 51.6757 67.1078 51.4104 66.9439 51.0123C66.7801 50.6142 66.6908 50.3341 66.6461 50.1867C66.3334 50.1129 65.9462 50.2161 65.5143 50.511C65.0824 50.8059 64.6803 51.2187 64.3527 51.72C64.0102 52.236 63.7868 52.8257 63.6974 53.5039C63.5932 54.1821 63.7272 54.8455 64.0846 55.5237C64.2484 55.7596 64.4718 56.0545 64.7697 56.3789C65.0675 56.718 65.3654 57.057 65.6632 57.4109C65.9611 57.7647 66.2589 58.1186 66.5567 58.4429C66.8546 58.7673 67.1078 59.0474 67.3014 59.2391C67.5396 59.4749 67.7034 59.6076 67.7779 59.6224C67.8524 59.6371 68.0609 59.5929 68.3736 59.4749C68.7757 59.2833 69.3863 59.0179 70.2053 58.7083C71.0244 58.3987 71.8882 58.0743 72.7817 57.7647C73.6752 57.4551 74.539 57.1897 75.3581 56.9686C76.1771 56.7474 76.8026 56.6442 77.2494 56.6442C77.5323 56.6442 77.7259 56.7474 77.8451 56.9391C77.9642 57.057 77.9493 57.2192 77.7855 57.4109C77.6217 57.6025 77.4132 57.809 77.16 58.0006C76.9068 58.1923 76.6239 58.3692 76.3558 58.5314C76.0729 58.6936 75.8942 58.782 75.8197 58.8262C75.1347 59.2243 74.2858 59.6666 73.2434 60.1679C72.2009 60.6544 71.3074 61.1409 70.5479 61.6127C70.4734 61.6864 70.3245 61.7749 70.1011 61.8486C69.8777 61.9223 69.7139 62.0108 69.5948 62.0845C70.0713 63.146 70.4138 64.0749 70.6074 64.8415C70.801 65.6082 70.8755 66.3453 70.8159 67.0678C70.7564 67.7754 70.6074 68.4979 70.3692 69.235C70.1309 69.9722 69.8032 70.8126 69.416 71.7561C68.8501 72.6702 68.2842 73.5401 67.7034 74.3657C67.1226 75.1913 66.4823 75.9432 65.7526 76.6214C65.0377 77.2996 64.2484 77.8304 63.4145 78.2137C62.5805 78.6118 61.6572 78.8034 60.6594 78.8034C60.0935 78.8034 59.5574 78.7297 59.0362 78.597C58.5149 78.4643 58.0831 78.1695 57.7256 77.7419C56.8023 76.7541 56.296 75.6779 56.1768 74.5131C56.0577 73.3484 56.162 72.1984 56.4747 71.0485C56.713 70.3408 57.0108 69.6921 57.3682 69.0876C58.2469 67.5838 59.2149 66.3158 60.2722 65.2691C61.3445 64.237 62.4465 63.2345 63.6081 62.2909ZM65.6483 64.9595C65.2015 65.4018 64.6059 66.021 63.8464 66.8319C63.0868 67.6427 62.3869 68.5273 61.7168 69.4709C61.0615 70.4145 60.5254 71.3581 60.1084 72.2869C59.6914 73.2157 59.5872 74.0119 59.7808 74.6901C60.585 74.3362 61.404 73.7465 62.238 72.9356C63.072 72.1247 63.8166 71.2401 64.4569 70.2671C65.0973 69.294 65.5441 68.3357 65.7972 67.3921C66.0504 66.4338 66.0057 65.6229 65.6483 64.9595Z" fill="#FF6D6D" stroke="white" stroke-miterlimit="10"/>
<path d="M53.8979 86.2929C35.2677 86.2929 20.1074 71.2842 20.1074 52.8403C20.1074 34.3964 35.2677 19.3877 53.8979 19.3877C72.5281 19.3877 87.6884 34.3964 87.6884 52.8403C87.6884 71.2842 72.5281 86.2929 53.8979 86.2929ZM53.8979 20.862C36.0868 20.862 21.5966 35.2073 21.5966 52.8403C21.5966 70.4733 36.0868 84.8185 53.8979 84.8185C71.709 84.8185 86.1992 70.4733 86.1992 52.8403C86.1992 35.2073 71.709 20.862 53.8979 20.862Z" fill="#FF6D6D"/>
</g>
</svg>
